<?xml version="1.0" encoding="UTF-8" standalone="no"?>
<!-- Created with Inkscape (http://www.inkscape.org/) -->

<svg
   xmlns:svg="http://www.w3.org/2000/svg"
   xmlns="http://www.w3.org/2000/svg"
   version="1.0"
   width="32"
   height="32"
   id="svg2">
  <defs
     id="defs15" />
  <circle
     cx="16"
     cy="16"
     r="14"
     id="circle"
     style="fill:#336699" />
  <g
     id="text2820"
     style="font-size:10px;font-style:normal;font-variant:normal;font-weight:normal;font-stretch:normal;text-align:center;text-anchor:middle;fill:#ffffff;fill-opacity:1;stroke:none;font-family:Droid Sans;-inkscape-font-specification:Droid Sans">
    <path
       d="m 13.215925,22.008438 -2.564941,0 0,-7.022461 c -4e-6,-0.143873 -4e-6,-0.315422 0,-0.514648 0.0055,-0.204745 0.01106,-0.415031 0.0166,-0.63086 0.01106,-0.221345 0.01936,-0.442699 0.0249,-0.664062 0.01106,-0.221345 0.01936,-0.423331 0.0249,-0.605957 -0.02767,0.03321 -0.07471,0.08302 -0.141113,0.149414 -0.06641,0.06642 -0.141118,0.141122 -0.224121,0.224121 -0.08301,0.07748 -0.168787,0.157724 -0.257325,0.240723 -0.08854,0.08302 -0.1743194,0.157723 -0.2573238,0.224121 L 8.442976,14.529434 7.1978588,12.985489 11.107527,9.8726959 l 2.108398,0 0,12.1357421"
       id="path2818"
       style="font-size:17px;font-weight:bold;fill:#ffffff;-inkscape-font-specification:Bitstream Vera Sans Bold" />
    <path
       d="m 24.803816,19.493301 -1.460938,0 0,2.515137 -2.498535,0 0,-2.515137 -5.013672,0 0,-1.784668 5.154785,-7.8359371 2.357422,0 0,7.6284181 1.460938,0 0,1.992187 m -3.959473,-1.992187 0,-2.058594 c -5e-6,-0.07193 -5e-6,-0.17431 0,-0.307129 0.0055,-0.138339 0.01106,-0.293287 0.0166,-0.464844 0.0055,-0.171541 0.01106,-0.348625 0.0166,-0.53125 0.01106,-0.182609 0.01936,-0.356925 0.0249,-0.522949 0.01106,-0.166007 0.01936,-0.309887 0.0249,-0.43164 0.01106,-0.12727 0.01936,-0.218579 0.0249,-0.273926 l -0.07471,0 c -0.09961,0.232431 -0.213058,0.478687 -0.340332,0.738769 -0.121749,0.2601 -0.262862,0.520191 -0.42334,0.780274 l -2.02539,3.071289 2.755859,0"
       id="path2820"
       style="font-size:17px;font-weight:bold;fill:#ffffff;-inkscape-font-specification:Bitstream Vera Sans Bold" />
  </g>
</svg>
