<?xml version="1.0" encoding="UTF-8" standalone="no"?>
<!-- Created with Inkscape (http://www.inkscape.org/) -->

<svg
   xmlns:svg="http://www.w3.org/2000/svg"
   xmlns="http://www.w3.org/2000/svg"
   version="1.0"
   width="32"
   height="32"
   id="svg2">
  <defs
     id="defs15" />
  <circle
     cx="16"
     cy="16"
     r="14"
     id="circle"
     style="fill:#336699" />
  <g
     id="text2820"
     style="font-size:10px;font-style:normal;font-variant:normal;font-weight:normal;font-stretch:normal;text-align:center;text-anchor:middle;fill:#ffffff;fill-opacity:1;stroke:none;font-family:Droid Sans;-inkscape-font-specification:Droid Sans">
    <path
       d="m 15.257917,22.008438 -8.143066,0 0,-1.784668 2.8554687,-3.07959 c 0.3596963,-0.387364 0.6861933,-0.744297 0.9794923,-1.0708 0.293289,-0.326492 0.54508,-0.644688 0.755371,-0.95459 0.210281,-0.309889 0.37353,-0.625318 0.489746,-0.946289 0.116205,-0.320956 0.174311,-0.666821 0.174317,-1.037598 -6e-6,-0.409496 -0.124518,-0.727692 -0.373536,-0.95459 -0.243495,-0.226878 -0.572759,-0.340322 -0.987793,-0.340332 -0.437178,10e-6 -0.857751,0.10792 -1.2617183,0.323731 C 9.3422244,12.379541 8.918885,12.68667 8.4761791,13.085098 L 7.0816479,11.433243 C 7.3306704,11.206366 7.5907613,10.990545 7.8619213,10.785782 8.1330785,10.575507 8.4319063,10.390123 8.7584057,10.22963 9.0849004,10.06916 9.4446006,9.9418812 9.8375072,9.8477936 10.230407,9.7481965 10.670348,9.6983918 11.157331,9.6983795 c 0.58105,1.23e-5 1.101232,0.080253 1.560547,0.2407227 0.464837,0.1604938 0.860508,0.3901488 1.187012,0.6889648 0.32649,0.293305 0.575513,0.650239 0.74707,1.070801 0.177075,0.420583 0.265617,0.893727 0.265625,1.419433 -8e-6,0.47592 -0.08302,0.932463 -0.249023,1.369629 -0.166024,0.431648 -0.392912,0.857754 -0.680664,1.278321 -0.287768,0.415044 -0.622566,0.830083 -1.004395,1.245117 -0.376308,0.40951 -0.780279,0.827315 -1.211914,1.253418 l -1.460937,1.469238 0,0.116211 4.947265,0 0,2.158203"
       id="path2818"
       style="font-size:17px;font-weight:bold;fill:#ffffff;-inkscape-font-specification:Bitstream Vera Sans Bold" />
    <path
       d="m 24.148054,12.587051 c -8e-6,0.420582 -0.06918,0.799651 -0.207519,1.137207 -0.132821,0.33204 -0.318205,0.625334 -0.556153,0.879883 -0.232429,0.249031 -0.509121,0.459317 -0.830078,0.63086 -0.315436,0.166022 -0.658535,0.2933 -1.029297,0.381836 l 0,0.0498 c 0.979486,0.121751 1.721021,0.420579 2.22461,0.896485 0.503572,0.470382 0.755362,1.106775 0.755371,1.909179 -9e-6,0.531253 -0.09685,1.023766 -0.290528,1.477539 -0.188159,0.448244 -0.481453,0.83838 -0.879882,1.170411 -0.392911,0.332031 -0.890958,0.592122 -1.494141,0.780273 -0.597662,0.182617 -1.303227,0.273926 -2.116699,0.273926 -0.652998,0 -1.267256,-0.05534 -1.842774,-0.166016 -0.575522,-0.105143 -1.112305,-0.268392 -1.610351,-0.489746 l 0,-2.183105 c 0.249022,0.132815 0.51188,0.249025 0.788574,0.348632 0.276691,0.09961 0.553384,0.185387 0.830078,0.257325 0.27669,0.06641 0.547849,0.116212 0.813477,0.149414 0.271155,0.0332 0.525712,0.04981 0.763671,0.0498 0.475908,2e-6 0.871578,-0.04427 1.187012,-0.132812 0.315425,-0.08854 0.567215,-0.213051 0.755371,-0.373535 0.188146,-0.16048 0.320958,-0.351397 0.398438,-0.572754 0.083,-0.226885 0.124505,-0.473141 0.124512,-0.73877 -7e-6,-0.249019 -0.05258,-0.47314 -0.157715,-0.672363 -0.09962,-0.20474 -0.265631,-0.376289 -0.498047,-0.51464 -0.226893,-0.143876 -0.525721,-0.254553 -0.896485,-0.332032 -0.370772,-0.07747 -0.827315,-0.116205 -1.369628,-0.116211 l -0.863282,0 0,-1.801269 0.84668,0 c 0.509111,7e-6 0.93245,-0.04426 1.270019,-0.132813 0.337561,-0.09407 0.605952,-0.218579 0.805176,-0.373535 0.204747,-0.160474 0.348627,-0.345858 0.431641,-0.556152 0.083,-0.210278 0.124506,-0.434399 0.124512,-0.672363 -6e-6,-0.431632 -0.135585,-0.769197 -0.406739,-1.012696 -0.26563,-0.243479 -0.688969,-0.365224 -1.270019,-0.365234 -0.265629,1e-5 -0.514652,0.02768 -0.747071,0.08301 -0.226891,0.04981 -0.439944,0.116221 -0.63916,0.199218 -0.193687,0.07748 -0.373537,0.166026 -0.53955,0.265625 -0.160484,0.09409 -0.307131,0.188161 -0.439942,0.282227 l -1.294922,-1.709961 c 0.232421,-0.171538 0.484212,-0.329253 0.755371,-0.473145 0.276692,-0.143868 0.575519,-0.26838 0.896485,-0.373535 0.320961,-0.1106647 0.666826,-0.1964393 1.037597,-0.2573239 0.370765,-0.06086 0.766435,-0.091296 1.187012,-0.091309 0.597651,1.23e-5 1.139969,0.066419 1.626953,0.1992188 0.492507,0.1272911 0.913079,0.3154421 1.261719,0.5644531 0.348625,0.243501 0.617017,0.545096 0.805176,0.904786 0.193676,0.354177 0.290519,0.760914 0.290527,1.220214"
       id="path2820"
       style="font-size:17px;font-weight:bold;fill:#ffffff;-inkscape-font-specification:Bitstream Vera Sans Bold" />
  </g>
</svg>
