<?xml version="1.0" encoding="UTF-8" standalone="no"?>
<!-- Created with Inkscape (http://www.inkscape.org/) -->

<svg
   xmlns:svg="http://www.w3.org/2000/svg"
   xmlns="http://www.w3.org/2000/svg"
   version="1.0"
   width="32"
   height="32"
   id="svg2">
  <defs
     id="defs15" />
  <circle
     cx="16"
     cy="16"
     r="14"
     id="circle"
     style="fill:#336699" />
  <g
     id="text2820"
     style="font-size:10px;font-style:normal;font-variant:normal;font-weight:normal;font-stretch:normal;text-align:center;text-anchor:middle;fill:#ffffff;fill-opacity:1;stroke:none;font-family:Droid Sans;-inkscape-font-specification:Droid Sans">
    <path
       d="m 13.215925,22.008438 -2.564941,0 0,-7.022461 c -4e-6,-0.143873 -4e-6,-0.315422 0,-0.514648 0.0055,-0.204745 0.01106,-0.415031 0.0166,-0.63086 0.01106,-0.221345 0.01936,-0.442699 0.0249,-0.664062 0.01106,-0.221345 0.01936,-0.423331 0.0249,-0.605957 -0.02767,0.03321 -0.07471,0.08302 -0.141113,0.149414 -0.06641,0.06642 -0.141118,0.141122 -0.224121,0.224121 -0.08301,0.07748 -0.168787,0.157724 -0.257325,0.240723 -0.08854,0.08302 -0.1743194,0.157723 -0.2573238,0.224121 L 8.442976,14.529434 7.1978588,12.985489 11.107527,9.8726959 l 2.108398,0 0,12.1357421"
       id="path2818"
       style="font-size:17px;font-weight:bold;fill:#ffffff;-inkscape-font-specification:Bitstream Vera Sans Bold" />
    <path
       d="m 24.621199,22.008438 -8.143067,0 0,-1.784668 2.855469,-3.07959 c 0.359697,-0.387364 0.686194,-0.744297 0.979492,-1.0708 0.29329,-0.326492 0.54508,-0.644688 0.755371,-0.95459 0.210281,-0.309889 0.37353,-0.625318 0.489746,-0.946289 0.116205,-0.320956 0.174311,-0.666821 0.174317,-1.037598 -6e-6,-0.409496 -0.124518,-0.727692 -0.373535,-0.95459 -0.243495,-0.226878 -0.572759,-0.340322 -0.987793,-0.340332 -0.437179,10e-6 -0.857751,0.10792 -1.261719,0.323731 -0.403974,0.215829 -0.827314,0.522958 -1.27002,0.921386 l -1.394531,-1.651855 c 0.249023,-0.226877 0.509114,-0.442698 0.780274,-0.647461 0.271157,-0.210275 0.569985,-0.395659 0.896484,-0.556152 0.326495,-0.16047 0.686195,-0.2877488 1.079101,-0.3818364 0.3929,-0.099597 0.832841,-0.1494018 1.319825,-0.1494141 0.581049,1.23e-5 1.101231,0.080253 1.560547,0.2407227 0.464837,0.1604938 0.860507,0.3901488 1.187011,0.6889648 0.32649,0.293305 0.575513,0.650239 0.747071,1.070801 0.177075,0.420583 0.265616,0.893727 0.265625,1.419433 -9e-6,0.47592 -0.08302,0.932463 -0.249024,1.369629 -0.166024,0.431648 -0.392911,0.857754 -0.680664,1.278321 -0.287768,0.415044 -0.622565,0.830083 -1.004394,1.245117 -0.376309,0.40951 -0.78028,0.827315 -1.211914,1.253418 l -1.460938,1.469238 0,0.116211 4.947266,0 0,2.158203"
       id="path2820"
       style="font-size:17px;font-weight:bold;fill:#ffffff;-inkscape-font-specification:Bitstream Vera Sans Bold" />
  </g>
</svg>
