<?xml version="1.0" encoding="UTF-8" standalone="no"?>
<!-- Created with Inkscape (http://www.inkscape.org/) -->

<svg
   xmlns:svg="http://www.w3.org/2000/svg"
   xmlns="http://www.w3.org/2000/svg"
   version="1.0"
   width="32"
   height="32"
   id="svg2">
  <defs
     id="defs15" />
  <circle
     cx="16"
     cy="16"
     r="14"
     id="circle"
     style="fill:#336699" />
  <g
     id="text2820"
     style="font-size:10px;font-style:normal;font-variant:normal;font-weight:normal;font-stretch:normal;text-align:center;text-anchor:middle;fill:#ffffff;fill-opacity:1;stroke:none;font-family:Droid Sans;-inkscape-font-specification:Droid Sans">
    <path
       d="m 15.257917,22.008438 -8.143066,0 0,-1.784668 2.8554687,-3.07959 c 0.3596963,-0.387364 0.6861933,-0.744297 0.9794923,-1.0708 0.293289,-0.326492 0.54508,-0.644688 0.755371,-0.95459 0.210281,-0.309889 0.37353,-0.625318 0.489746,-0.946289 0.116205,-0.320956 0.174311,-0.666821 0.174317,-1.037598 -6e-6,-0.409496 -0.124518,-0.727692 -0.373536,-0.95459 -0.243495,-0.226878 -0.572759,-0.340322 -0.987793,-0.340332 -0.437178,10e-6 -0.857751,0.10792 -1.2617183,0.323731 C 9.3422244,12.379541 8.918885,12.68667 8.4761791,13.085098 L 7.0816479,11.433243 C 7.3306704,11.206366 7.5907613,10.990545 7.8619213,10.785782 8.1330785,10.575507 8.4319063,10.390123 8.7584057,10.22963 9.0849004,10.06916 9.4446006,9.9418812 9.8375072,9.8477936 10.230407,9.7481965 10.670348,9.6983918 11.157331,9.6983795 c 0.58105,1.23e-5 1.101232,0.080253 1.560547,0.2407227 0.464837,0.1604938 0.860508,0.3901488 1.187012,0.6889648 0.32649,0.293305 0.575513,0.650239 0.74707,1.070801 0.177075,0.420583 0.265617,0.893727 0.265625,1.419433 -8e-6,0.47592 -0.08302,0.932463 -0.249023,1.369629 -0.166024,0.431648 -0.392912,0.857754 -0.680664,1.278321 -0.287768,0.415044 -0.622566,0.830083 -1.004395,1.245117 -0.376308,0.40951 -0.780279,0.827315 -1.211914,1.253418 l -1.460937,1.469238 0,0.116211 4.947265,0 0,2.158203"
       id="path2818"
       style="font-size:17px;font-weight:bold;fill:#ffffff;-inkscape-font-specification:Bitstream Vera Sans Bold" />
    <path
       d="m 24.803816,19.493301 -1.460938,0 0,2.515137 -2.498535,0 0,-2.515137 -5.013672,0 0,-1.784668 5.154785,-7.8359371 2.357422,0 0,7.6284181 1.460938,0 0,1.992187 m -3.959473,-1.992187 0,-2.058594 c -5e-6,-0.07193 -5e-6,-0.17431 0,-0.307129 0.0055,-0.138339 0.01106,-0.293287 0.0166,-0.464844 0.0055,-0.171541 0.01106,-0.348625 0.0166,-0.53125 0.01106,-0.182609 0.01936,-0.356925 0.0249,-0.522949 0.01106,-0.166007 0.01936,-0.309887 0.0249,-0.43164 0.01106,-0.12727 0.01936,-0.218579 0.0249,-0.273926 l -0.07471,0 c -0.09961,0.232431 -0.213058,0.478687 -0.340332,0.738769 -0.121749,0.2601 -0.262862,0.520191 -0.42334,0.780274 l -2.02539,3.071289 2.755859,0"
       id="path2820"
       style="font-size:17px;font-weight:bold;fill:#ffffff;-inkscape-font-specification:Bitstream Vera Sans Bold" />
  </g>
</svg>
