<?xml version="1.0" encoding="UTF-8" standalone="no"?>
<!-- Created with Inkscape (http://www.inkscape.org/) -->

<svg
   xmlns:svg="http://www.w3.org/2000/svg"
   xmlns="http://www.w3.org/2000/svg"
   version="1.0"
   width="32"
   height="32"
   id="svg2">
  <defs
     id="defs15" />
  <circle
     cx="16"
     cy="16"
     r="14"
     id="circle"
     style="fill:#336699" />
  <g
     id="text2820"
     style="font-size:10px;font-style:normal;font-variant:normal;font-weight:normal;font-stretch:normal;text-align:center;text-anchor:middle;fill:#ffffff;fill-opacity:1;stroke:none;font-family:Droid Sans;-inkscape-font-specification:Droid Sans">
    <path
       d="m 15.257917,22.008438 -8.143066,0 0,-1.784668 2.8554687,-3.07959 c 0.3596963,-0.387364 0.6861933,-0.744297 0.9794923,-1.0708 0.293289,-0.326492 0.54508,-0.644688 0.755371,-0.95459 0.210281,-0.309889 0.37353,-0.625318 0.489746,-0.946289 0.116205,-0.320956 0.174311,-0.666821 0.174317,-1.037598 -6e-6,-0.409496 -0.124518,-0.727692 -0.373536,-0.95459 -0.243495,-0.226878 -0.572759,-0.340322 -0.987793,-0.340332 -0.437178,10e-6 -0.857751,0.10792 -1.2617183,0.323731 C 9.3422244,12.379541 8.918885,12.68667 8.4761791,13.085098 L 7.0816479,11.433243 C 7.3306704,11.206366 7.5907613,10.990545 7.8619213,10.785782 8.1330785,10.575507 8.4319063,10.390123 8.7584057,10.22963 9.0849004,10.06916 9.4446006,9.9418812 9.8375072,9.8477936 10.230407,9.7481965 10.670348,9.6983918 11.157331,9.6983795 c 0.58105,1.23e-5 1.101232,0.080253 1.560547,0.2407227 0.464837,0.1604938 0.860508,0.3901488 1.187012,0.6889648 0.32649,0.293305 0.575513,0.650239 0.74707,1.070801 0.177075,0.420583 0.265617,0.893727 0.265625,1.419433 -8e-6,0.47592 -0.08302,0.932463 -0.249023,1.369629 -0.166024,0.431648 -0.392912,0.857754 -0.680664,1.278321 -0.287768,0.415044 -0.622566,0.830083 -1.004395,1.245117 -0.376308,0.40951 -0.780279,0.827315 -1.211914,1.253418 l -1.460937,1.469238 0,0.116211 4.947265,0 0,2.158203"
       id="path2818"
       style="font-size:17px;font-weight:bold;fill:#ffffff;-inkscape-font-specification:Bitstream Vera Sans Bold" />
    <path
       d="m 20.48741,9.7149811 c 0.503575,1.23e-5 0.979486,0.060885 1.427734,0.1826172 0.448236,0.1217567 0.841139,0.3043737 1.178711,0.5478517 0.337557,0.243501 0.605949,0.547862 0.805176,0.913086 0.19921,0.365244 0.298819,0.794118 0.298828,1.286621 -9e-6,0.365243 -0.05535,0.697274 -0.166016,0.996094 -0.110685,0.293302 -0.262866,0.561694 -0.456543,0.805175 -0.193692,0.237963 -0.423347,0.451017 -0.688965,0.639161 -0.265631,0.188157 -0.553392,0.359707 -0.863281,0.514648 0.320957,0.171556 0.63362,0.362473 0.937988,0.572754 0.309889,0.210292 0.583814,0.448247 0.821778,0.713867 0.237947,0.260096 0.428865,0.55339 0.572754,0.879883 0.143871,0.326501 0.215811,0.691735 0.21582,1.095703 -9e-6,0.503583 -0.09962,0.960126 -0.298828,1.369629 -0.199227,0.409506 -0.478687,0.758139 -0.838379,1.045898 -0.359708,0.287761 -0.791348,0.509115 -1.294922,0.664063 -0.498053,0.154948 -1.048671,0.232422 -1.651855,0.232422 -0.652999,0 -1.234053,-0.07471 -1.743164,-0.224121 -0.509117,-0.149414 -0.937991,-0.362467 -1.286622,-0.639161 -0.348634,-0.276691 -0.614258,-0.617023 -0.796875,-1.020996 -0.177084,-0.403969 -0.265625,-0.857744 -0.265625,-1.361328 0,-0.415035 0.06087,-0.78857 0.182618,-1.120605 0.121744,-0.332027 0.287759,-0.630855 0.498046,-0.896485 0.210285,-0.265619 0.456542,-0.500808 0.73877,-0.705566 0.282224,-0.204747 0.583819,-0.384597 0.904785,-0.539551 -0.271161,-0.171543 -0.525718,-0.356927 -0.763672,-0.556152 -0.237957,-0.204746 -0.445477,-0.428866 -0.622558,-0.672363 -0.171551,-0.249016 -0.309897,-0.522942 -0.415039,-0.821778 -0.09961,-0.298819 -0.149415,-0.628083 -0.149414,-0.987793 -1e-6,-0.481435 0.09961,-0.902008 0.298828,-1.261718 0.204751,-0.365224 0.478676,-0.669585 0.821777,-0.913086 0.343097,-0.249012 0.738767,-0.434396 1.187012,-0.5561527 0.448238,-0.1217326 0.918615,-0.1826049 1.411133,-0.1826172 m -1.718262,9.0644529 c -3e-6,0.221357 0.03597,0.42611 0.10791,0.614258 0.07194,0.18262 0.17708,0.340334 0.31543,0.473145 0.143876,0.132814 0.32096,0.237957 0.53125,0.315429 0.210282,0.07194 0.453771,0.107912 0.730468,0.10791 0.58105,2e-6 1.015457,-0.135577 1.303223,-0.406738 0.287754,-0.27669 0.431634,-0.639157 0.431641,-1.087402 -7e-6,-0.232419 -0.04981,-0.439938 -0.149414,-0.622559 -0.09408,-0.188147 -0.218594,-0.359696 -0.373535,-0.514648 -0.14942,-0.160478 -0.32097,-0.307125 -0.514649,-0.439942 -0.19369,-0.132807 -0.387375,-0.260086 -0.581055,-0.381836 L 20.3878,16.72084 c -0.243494,0.12175 -0.464848,0.254563 -0.664062,0.398438 -0.199223,0.138351 -0.370772,0.293299 -0.514649,0.464844 -0.138349,0.16602 -0.246259,0.348637 -0.32373,0.547851 -0.07748,0.199223 -0.116214,0.415043 -0.116211,0.647461 m 1.70166,-7.188476 c -0.182622,10e-6 -0.354171,0.02768 -0.514648,0.08301 -0.154952,0.05535 -0.290532,0.13559 -0.406739,0.240723 -0.11068,0.105153 -0.199222,0.235199 -0.265625,0.390137 -0.06641,0.154957 -0.09961,0.329274 -0.09961,0.522949 -3e-6,0.232431 0.0332,0.434416 0.09961,0.605957 0.07194,0.166024 0.166012,0.315438 0.282227,0.448242 0.121741,0.127287 0.260087,0.243498 0.415039,0.348633 0.160477,0.09962 0.32926,0.199226 0.506348,0.298828 0.171544,-0.08853 0.334793,-0.185376 0.489746,-0.290527 0.154942,-0.105135 0.290522,-0.224113 0.406738,-0.356934 0.121739,-0.138338 0.218581,-0.293286 0.290527,-0.464843 0.07193,-0.171541 0.107904,-0.367993 0.10791,-0.589356 -6e-6,-0.193675 -0.03321,-0.367992 -0.09961,-0.522949 -0.06641,-0.154938 -0.15772,-0.284984 -0.273926,-0.390137 -0.116216,-0.105133 -0.254562,-0.185374 -0.415039,-0.240723 -0.160487,-0.05533 -0.334803,-0.083 -0.522949,-0.08301"
       id="path2820"
       style="font-size:17px;font-weight:bold;fill:#ffffff;-inkscape-font-specification:Bitstream Vera Sans Bold" />
  </g>
</svg>
