<?xml version="1.0" encoding="UTF-8" standalone="no"?>
<!-- Created with Inkscape (http://www.inkscape.org/) -->

<svg
   xmlns:svg="http://www.w3.org/2000/svg"
   xmlns="http://www.w3.org/2000/svg"
   version="1.0"
   width="32"
   height="32"
   id="svg2">
  <defs
     id="defs15" />
  <circle
     cx="16"
     cy="16"
     r="14"
     id="circle"
     style="fill:#336699" />
  <g
     id="text2820"
     style="font-size:10px;font-style:normal;font-variant:normal;font-weight:normal;font-stretch:normal;text-align:center;text-anchor:middle;fill:#ffffff;fill-opacity:1;stroke:none;font-family:Droid Sans;-inkscape-font-specification:Droid Sans">
    <path
       d="m 14.784773,12.587051 c -8e-6,0.420582 -0.06918,0.799651 -0.20752,1.137207 -0.13282,0.33204 -0.318204,0.625334 -0.556152,0.879883 -0.232429,0.249031 -0.509122,0.459317 -0.830078,0.63086 -0.315436,0.166022 -0.658535,0.2933 -1.029297,0.381836 l 0,0.0498 c 0.979485,0.121751 1.721021,0.420579 2.224609,0.896485 0.503573,0.470382 0.755363,1.106775 0.755371,1.909179 -8e-6,0.531253 -0.09685,1.023766 -0.290527,1.477539 -0.188159,0.448244 -0.481453,0.83838 -0.879883,1.170411 -0.39291,0.332031 -0.890957,0.592122 -1.49414,0.780273 -0.597662,0.182617 -1.303228,0.273926 -2.1167,0.273926 -0.6529976,0 -1.2672548,-0.05534 -1.842773,-0.166016 C 7.9421607,21.903295 7.4053774,21.740046 6.9073315,21.518692 l 0,-2.183105 c 0.2490227,0.132815 0.5118805,0.249025 0.7885742,0.348632 0.2766912,0.09961 0.5533836,0.185387 0.8300781,0.257325 0.2766904,0.06641 0.5478489,0.116212 0.8134766,0.149414 0.2711557,0.0332 0.5257127,0.04981 0.7636716,0.0498 0.475908,2e-6 0.871578,-0.04427 1.187012,-0.132812 0.315424,-0.08854 0.567215,-0.213051 0.755371,-0.373535 0.188145,-0.16048 0.320958,-0.351397 0.398438,-0.572754 0.083,-0.226885 0.124505,-0.473141 0.124511,-0.73877 -6e-6,-0.249019 -0.05258,-0.47314 -0.157715,-0.672363 -0.09962,-0.204748 -0.26563,-0.376297 -0.498046,-0.514648 C 11.685809,16.992 11.386981,16.881323 11.016218,16.803844 10.645446,16.726374 10.188903,16.687639 9.6465893,16.687633 l -0.8632813,0 0,-1.801269 0.8466797,0 c 0.5091113,7e-6 0.9324503,-0.04426 1.2700193,-0.132813 0.337561,-0.09407 0.605952,-0.218579 0.805176,-0.373535 0.204747,-0.160474 0.348627,-0.345858 0.431641,-0.556152 0.083,-0.210278 0.124506,-0.434399 0.124511,-0.672363 -5e-6,-0.431632 -0.135585,-0.769197 -0.406738,-1.012696 -0.26563,-0.243479 -0.688969,-0.365224 -1.270019,-0.365234 -0.265629,10e-6 -0.514653,0.02768 -0.7470708,0.08301 -0.2268911,0.04981 -0.4399443,0.116221 -0.6391601,0.199218 -0.1936875,0.07748 -0.3735376,0.166026 -0.5395508,0.265625 -0.1604838,0.09409 -0.3071308,0.188161 -0.4399414,0.282227 L 6.923933,10.893692 c 0.2324212,-0.171538 0.4842113,-0.329253 0.7553711,-0.473145 0.2766912,-0.143868 0.575519,-0.26838 0.8964844,-0.373535 0.3209611,-0.1106647 0.6668266,-0.1964393 1.0375977,-0.2573239 0.3707646,-0.06086 0.7664348,-0.091296 1.1870118,-0.091309 0.597651,1.23e-5 1.139968,0.066419 1.626953,0.1992188 0.492507,0.1272911 0.913079,0.3154421 1.261719,0.5644531 0.348625,0.243501 0.617017,0.545096 0.805176,0.904786 0.193676,0.354177 0.290519,0.760914 0.290527,1.220214"
       id="path2818"
       style="font-size:17px;font-weight:bold;fill:#ffffff;-inkscape-font-specification:Bitstream Vera Sans Bold" />
    <path
       d="m 20.761335,14.255508 c 0.520177,8e-6 1.004389,0.08025 1.452637,0.240723 0.448235,0.160489 0.838372,0.395678 1.17041,0.705566 0.332024,0.309903 0.592114,0.697272 0.780274,1.16211 0.188142,0.459315 0.282218,0.987797 0.282226,1.585449 -8e-6,0.658532 -0.102385,1.250654 -0.307129,1.776367 -0.20476,0.520184 -0.506355,0.962892 -0.904785,1.328125 -0.398444,0.359701 -0.893724,0.636394 -1.48584,0.830078 -0.586594,0.193685 -1.261723,0.290528 -2.02539,0.290528 -0.304366,0 -0.605961,-0.01384 -0.904785,-0.0415 -0.298831,-0.02767 -0.586591,-0.06917 -0.863282,-0.124512 -0.27116,-0.04981 -0.531251,-0.116211 -0.780273,-0.199219 -0.243491,-0.08301 -0.464845,-0.17985 -0.664063,-0.290527 l 0,-2.216309 c 0.193684,0.11068 0.417805,0.215823 0.672364,0.31543 0.254555,0.09408 0.517413,0.177086 0.788574,0.249024 0.27669,0.06641 0.553383,0.121746 0.830078,0.166015 0.276689,0.03874 0.539547,0.05811 0.788574,0.05811 0.741532,2e-6 1.305985,-0.152179 1.69336,-0.456543 0.387364,-0.309893 0.581048,-0.799639 0.581054,-1.469239 -6e-6,-0.597651 -0.190924,-1.051427 -0.572754,-1.361328 -0.376307,-0.315424 -0.960128,-0.473139 -1.751464,-0.473144 -0.143884,5e-6 -0.298832,0.0083 -0.464844,0.0249 -0.160485,0.01661 -0.320967,0.03874 -0.481446,0.06641 -0.15495,0.02768 -0.304364,0.05811 -0.448242,0.09131 -0.143882,0.02767 -0.268394,0.05811 -0.373535,0.09131 l -1.020996,-0.547852 0.456543,-6.1840821 6.408203,0 0,2.1748051 -4.183594,0 -0.199218,2.382324 c 0.177079,-0.03873 0.381832,-0.07747 0.614257,-0.116211 0.237952,-0.03873 0.542314,-0.0581 0.913086,-0.05811"
       id="path2820"
       style="font-size:17px;font-weight:bold;fill:#ffffff;-inkscape-font-specification:Bitstream Vera Sans Bold" />
  </g>
</svg>
