<?xml version="1.0" encoding="UTF-8" standalone="no"?>
<!-- Created with Inkscape (http://www.inkscape.org/) -->

<svg
   xmlns:svg="http://www.w3.org/2000/svg"
   xmlns="http://www.w3.org/2000/svg"
   version="1.0"
   width="32"
   height="32"
   id="svg2">
  <defs
     id="defs15" />
  <circle
     cx="16"
     cy="16"
     r="14"
     id="circle"
     style="fill:#336699" />
  <g
     id="text2820"
     style="font-size:10px;font-style:normal;font-variant:normal;font-weight:normal;font-stretch:normal;text-align:center;text-anchor:middle;fill:#ffffff;fill-opacity:1;stroke:none;font-family:Droid Sans;-inkscape-font-specification:Droid Sans">
    <path
       d="m 14.784773,12.587051 c -8e-6,0.420582 -0.06918,0.799651 -0.20752,1.137207 -0.13282,0.33204 -0.318204,0.625334 -0.556152,0.879883 -0.232429,0.249031 -0.509122,0.459317 -0.830078,0.63086 -0.315436,0.166022 -0.658535,0.2933 -1.029297,0.381836 l 0,0.0498 c 0.979485,0.121751 1.721021,0.420579 2.224609,0.896485 0.503573,0.470382 0.755363,1.106775 0.755371,1.909179 -8e-6,0.531253 -0.09685,1.023766 -0.290527,1.477539 -0.188159,0.448244 -0.481453,0.83838 -0.879883,1.170411 -0.39291,0.332031 -0.890957,0.592122 -1.49414,0.780273 -0.597662,0.182617 -1.303228,0.273926 -2.1167,0.273926 -0.6529976,0 -1.2672548,-0.05534 -1.842773,-0.166016 C 7.9421607,21.903295 7.4053774,21.740046 6.9073315,21.518692 l 0,-2.183105 c 0.2490227,0.132815 0.5118805,0.249025 0.7885742,0.348632 0.2766912,0.09961 0.5533836,0.185387 0.8300781,0.257325 0.2766904,0.06641 0.5478489,0.116212 0.8134766,0.149414 0.2711557,0.0332 0.5257127,0.04981 0.7636716,0.0498 0.475908,2e-6 0.871578,-0.04427 1.187012,-0.132812 0.315424,-0.08854 0.567215,-0.213051 0.755371,-0.373535 0.188145,-0.16048 0.320958,-0.351397 0.398438,-0.572754 0.083,-0.226885 0.124505,-0.473141 0.124511,-0.73877 -6e-6,-0.249019 -0.05258,-0.47314 -0.157715,-0.672363 -0.09962,-0.204748 -0.26563,-0.376297 -0.498046,-0.514648 C 11.685809,16.992 11.386981,16.881323 11.016218,16.803844 10.645446,16.726374 10.188903,16.687639 9.6465893,16.687633 l -0.8632813,0 0,-1.801269 0.8466797,0 c 0.5091113,7e-6 0.9324503,-0.04426 1.2700193,-0.132813 0.337561,-0.09407 0.605952,-0.218579 0.805176,-0.373535 0.204747,-0.160474 0.348627,-0.345858 0.431641,-0.556152 0.083,-0.210278 0.124506,-0.434399 0.124511,-0.672363 -5e-6,-0.431632 -0.135585,-0.769197 -0.406738,-1.012696 -0.26563,-0.243479 -0.688969,-0.365224 -1.270019,-0.365234 -0.265629,10e-6 -0.514653,0.02768 -0.7470708,0.08301 -0.2268911,0.04981 -0.4399443,0.116221 -0.6391601,0.199218 -0.1936875,0.07748 -0.3735376,0.166026 -0.5395508,0.265625 -0.1604838,0.09409 -0.3071308,0.188161 -0.4399414,0.282227 L 6.923933,10.893692 c 0.2324212,-0.171538 0.4842113,-0.329253 0.7553711,-0.473145 0.2766912,-0.143868 0.575519,-0.26838 0.8964844,-0.373535 0.3209611,-0.1106647 0.6668266,-0.1964393 1.0375977,-0.2573239 0.3707646,-0.06086 0.7664348,-0.091296 1.1870118,-0.091309 0.597651,1.23e-5 1.139968,0.066419 1.626953,0.1992188 0.492507,0.1272911 0.913079,0.3154421 1.261719,0.5644531 0.348625,0.243501 0.617017,0.545096 0.805176,0.904786 0.193676,0.354177 0.290519,0.760914 0.290527,1.220214"
       id="path2818"
       style="font-size:17px;font-weight:bold;fill:#ffffff;-inkscape-font-specification:Bitstream Vera Sans Bold" />
    <path
       d="m 24.554792,15.052383 c -8e-6,0.581061 -0.03321,1.162116 -0.09961,1.743164 -0.06088,0.575526 -0.174325,1.126144 -0.340332,1.651856 -0.16049,0.525719 -0.381844,1.018232 -0.664063,1.477539 -0.2767,0.453778 -0.630866,0.846681 -1.0625,1.178711 -0.426112,0.332032 -0.94076,0.59489 -1.543945,0.788574 -0.597661,0.188151 -1.300459,0.282227 -2.108398,0.282227 -0.116214,0 -0.243493,-0.0028 -0.381836,-0.0083 -0.138349,-0.0055 -0.279462,-0.01384 -0.42334,-0.0249 -0.138348,-0.0055 -0.273928,-0.0166 -0.406738,-0.0332 -0.132814,-0.01107 -0.249025,-0.02767 -0.348633,-0.0498 l 0,-2.058594 c 0.204751,0.05534 0.423338,0.09961 0.655762,0.132813 0.237953,0.02767 0.478675,0.04151 0.722168,0.0415 0.747066,2e-6 1.361324,-0.09131 1.842773,-0.273925 0.48144,-0.188149 0.863276,-0.44824 1.145508,-0.780274 0.28222,-0.337562 0.481439,-0.738766 0.597656,-1.203613 0.121738,-0.464839 0.196445,-0.97672 0.224121,-1.535645 l -0.10791,0 c -0.110683,0.199225 -0.243496,0.384609 -0.398438,0.556153 -0.154953,0.171554 -0.33757,0.320968 -0.547851,0.448242 -0.210292,0.127283 -0.448247,0.226892 -0.713867,0.298828 -0.26563,0.07194 -0.561691,0.107914 -0.888184,0.10791 -0.525719,4e-6 -0.998863,-0.08577 -1.419433,-0.257324 -0.420575,-0.171545 -0.777509,-0.420568 -1.070801,-0.74707 -0.287762,-0.326492 -0.509116,-0.727696 -0.664063,-1.203614 -0.154948,-0.475904 -0.232422,-1.020988 -0.232422,-1.635253 0,-0.65852 0.09131,-1.247875 0.273926,-1.768067 0.18815,-0.520172 0.453775,-0.960113 0.796875,-1.319824 0.343097,-0.365223 0.758136,-0.644682 1.245117,-0.838379 0.49251,-0.1936727 1.043128,-0.2905151 1.651856,-0.2905274 0.597651,1.23e-5 1.15657,0.1079224 1.676758,0.3237304 0.520175,0.210298 0.971184,0.534028 1.353027,0.971192 0.381828,0.437185 0.683423,0.990569 0.904785,1.660156 0.221346,0.669605 0.332023,1.458178 0.332031,2.365722 m -4.216796,-3.262207 c -0.226893,1.1e-5 -0.434412,0.04151 -0.622559,0.124512 -0.188155,0.08302 -0.351403,0.213063 -0.489746,0.390137 -0.132816,0.171559 -0.237959,0.392913 -0.31543,0.664062 -0.07194,0.265634 -0.107913,0.581063 -0.10791,0.946289 -3e-6,0.586596 0.124509,1.05144 0.373535,1.394532 0.24902,0.343105 0.625322,0.514654 1.128906,0.514648 0.254553,6e-6 0.486975,-0.0498 0.697266,-0.149414 0.210281,-0.0996 0.390131,-0.229648 0.539551,-0.390137 0.149408,-0.160475 0.262852,-0.340325 0.340332,-0.53955 0.083,-0.199212 0.124505,-0.401197 0.124512,-0.605958 -7e-6,-0.282218 -0.03598,-0.561677 -0.107911,-0.838378 -0.06641,-0.282218 -0.171555,-0.534008 -0.315429,-0.755372 -0.138352,-0.226878 -0.312669,-0.409495 -0.52295,-0.547851 -0.204757,-0.138336 -0.44548,-0.207509 -0.722167,-0.20752"
       id="path2820"
       style="font-size:17px;font-weight:bold;fill:#ffffff;-inkscape-font-specification:Bitstream Vera Sans Bold" />
  </g>
</svg>
