<?xml version="1.0" encoding="UTF-8" standalone="no"?>
<!-- Created with Inkscape (http://www.inkscape.org/) -->

<svg
   xmlns:svg="http://www.w3.org/2000/svg"
   xmlns="http://www.w3.org/2000/svg"
   version="1.0"
   width="32"
   height="32"
   id="svg2">
  <defs
     id="defs15" />
  <circle
     cx="16"
     cy="16"
     r="14"
     id="circle"
     style="fill:#336699" />
  <g
     id="text2820"
     style="font-size:10px;font-style:normal;font-variant:normal;font-weight:normal;font-stretch:normal;text-align:center;text-anchor:middle;fill:#ffffff;fill-opacity:1;stroke:none;font-family:Droid Sans;-inkscape-font-specification:Droid Sans">
    <path
       d="m 13.215925,22.008438 -2.564941,0 0,-7.022461 c -4e-6,-0.143873 -4e-6,-0.315422 0,-0.514648 0.0055,-0.204745 0.01106,-0.415031 0.0166,-0.63086 0.01106,-0.221345 0.01936,-0.442699 0.0249,-0.664062 0.01106,-0.221345 0.01936,-0.423331 0.0249,-0.605957 -0.02767,0.03321 -0.07471,0.08302 -0.141113,0.149414 -0.06641,0.06642 -0.141118,0.141122 -0.224121,0.224121 -0.08301,0.07748 -0.168787,0.157724 -0.257325,0.240723 -0.08854,0.08302 -0.1743194,0.157723 -0.2573238,0.224121 L 8.442976,14.529434 7.1978588,12.985489 11.107527,9.8726959 l 2.108398,0 0,12.1357421"
       id="path2839"
       style="font-size:17px;font-weight:bold;fill:#ffffff;-inkscape-font-specification:Bitstream Vera Sans Bold" />
    <path
       d="m 20.761335,14.255508 c 0.520177,8e-6 1.004389,0.08025 1.452637,0.240723 0.448235,0.160489 0.838372,0.395678 1.17041,0.705566 0.332024,0.309903 0.592114,0.697272 0.780274,1.16211 0.188142,0.459315 0.282218,0.987797 0.282226,1.585449 -8e-6,0.658532 -0.102385,1.250654 -0.307129,1.776367 -0.20476,0.520184 -0.506355,0.962892 -0.904785,1.328125 -0.398444,0.359701 -0.893724,0.636394 -1.48584,0.830078 -0.586594,0.193685 -1.261723,0.290528 -2.02539,0.290528 -0.304366,0 -0.605961,-0.01384 -0.904785,-0.0415 -0.298831,-0.02767 -0.586591,-0.06917 -0.863282,-0.124512 -0.27116,-0.04981 -0.531251,-0.116211 -0.780273,-0.199219 -0.243491,-0.08301 -0.464845,-0.17985 -0.664063,-0.290527 l 0,-2.216309 c 0.193684,0.11068 0.417805,0.215823 0.672364,0.31543 0.254555,0.09408 0.517413,0.177086 0.788574,0.249024 0.27669,0.06641 0.553383,0.121746 0.830078,0.166015 0.276689,0.03874 0.539547,0.05811 0.788574,0.05811 0.741532,2e-6 1.305985,-0.152179 1.69336,-0.456543 0.387364,-0.309893 0.581048,-0.799639 0.581054,-1.469239 -6e-6,-0.597651 -0.190924,-1.051427 -0.572754,-1.361328 -0.376307,-0.315424 -0.960128,-0.473139 -1.751464,-0.473144 -0.143884,5e-6 -0.298832,0.0083 -0.464844,0.0249 -0.160485,0.01661 -0.320967,0.03874 -0.481446,0.06641 -0.15495,0.02768 -0.304364,0.05811 -0.448242,0.09131 -0.143882,0.02767 -0.268394,0.05811 -0.373535,0.09131 l -1.020996,-0.547852 0.456543,-6.1840821 6.408203,0 0,2.1748051 -4.183594,0 -0.199218,2.382324 c 0.177079,-0.03873 0.381832,-0.07747 0.614257,-0.116211 0.237952,-0.03873 0.542314,-0.0581 0.913086,-0.05811"
       id="path2841"
       style="font-size:17px;font-weight:bold;fill:#ffffff;-inkscape-font-specification:Bitstream Vera Sans Bold" />
  </g>
</svg>
