<?xml version="1.0" encoding="UTF-8" standalone="no"?>
<!-- Created with Inkscape (http://www.inkscape.org/) -->

<svg
   xmlns:svg="http://www.w3.org/2000/svg"
   xmlns="http://www.w3.org/2000/svg"
   version="1.0"
   width="32"
   height="32"
   id="svg2">
  <defs
     id="defs15" />
  <circle
     cx="16"
     cy="16"
     r="14"
     id="circle"
     style="fill:#336699" />
  <g
     id="text2820"
     style="font-size:10px;font-style:normal;font-variant:normal;font-weight:normal;font-stretch:normal;text-align:center;text-anchor:middle;fill:#ffffff;fill-opacity:1;stroke:none;font-family:Droid Sans;-inkscape-font-specification:Droid Sans">
    <path
       d="m 15.257917,22.008438 -8.143066,0 0,-1.784668 2.8554687,-3.07959 c 0.3596963,-0.387364 0.6861933,-0.744297 0.9794923,-1.0708 0.293289,-0.326492 0.54508,-0.644688 0.755371,-0.95459 0.210281,-0.309889 0.37353,-0.625318 0.489746,-0.946289 0.116205,-0.320956 0.174311,-0.666821 0.174317,-1.037598 -6e-6,-0.409496 -0.124518,-0.727692 -0.373536,-0.95459 -0.243495,-0.226878 -0.572759,-0.340322 -0.987793,-0.340332 -0.437178,10e-6 -0.857751,0.10792 -1.2617183,0.323731 C 9.3422244,12.379541 8.918885,12.68667 8.4761791,13.085098 L 7.0816479,11.433243 C 7.3306704,11.206366 7.5907613,10.990545 7.8619213,10.785782 8.1330785,10.575507 8.4319063,10.390123 8.7584057,10.22963 9.0849004,10.06916 9.4446006,9.9418812 9.8375072,9.8477936 10.230407,9.7481965 10.670348,9.6983918 11.157331,9.6983795 c 0.58105,1.23e-5 1.101232,0.080253 1.560547,0.2407227 0.464837,0.1604938 0.860508,0.3901488 1.187012,0.6889648 0.32649,0.293305 0.575513,0.650239 0.74707,1.070801 0.177075,0.420583 0.265617,0.893727 0.265625,1.419433 -8e-6,0.47592 -0.08302,0.932463 -0.249023,1.369629 -0.166024,0.431648 -0.392912,0.857754 -0.680664,1.278321 -0.287768,0.415044 -0.622566,0.830083 -1.004395,1.245117 -0.376308,0.40951 -0.780279,0.827315 -1.211914,1.253418 l -1.460937,1.469238 0,0.116211 4.947265,0 0,2.158203"
       id="path2818"
       style="font-size:17px;font-weight:bold;fill:#ffffff;-inkscape-font-specification:Bitstream Vera Sans Bold" />
    <path
       d="m 24.6378,15.940567 c -9e-6,0.979497 -0.07748,1.853845 -0.232422,2.623047 -0.149422,0.769208 -0.392912,1.422202 -0.730468,1.958984 -0.332039,0.536785 -0.763679,0.94629 -1.294922,1.228516 -0.525722,0.282226 -1.162115,0.42334 -1.90918,0.42334 -0.702803,0 -1.314294,-0.141114 -1.834473,-0.42334 -0.520184,-0.282226 -0.951824,-0.691731 -1.294922,-1.228516 -0.3431,-0.536782 -0.600424,-1.189776 -0.771972,-1.958984 -0.166016,-0.769202 -0.249024,-1.64355 -0.249024,-2.623047 0,-0.979485 0.07471,-1.8566 0.224121,-2.631348 0.154948,-0.77473 0.398437,-1.430491 0.730469,-1.967285 0.33203,-0.536772 0.760903,-0.946277 1.286621,-1.228515 0.525713,-0.2877487 1.162106,-0.4316287 1.90918,-0.431641 0.69726,1.23e-5 1.305984,0.1411254 1.826172,0.42334 0.520175,0.282238 0.954582,0.691743 1.303223,1.228515 0.348624,0.536794 0.608715,1.192555 0.780273,1.967286 0.171541,0.774747 0.257315,1.654629 0.257324,2.639648 m -5.760742,0 c -3e-6,1.383468 0.118975,2.423832 0.356934,3.121094 0.237952,0.697268 0.650223,1.0459 1.236816,1.045898 0.575516,2e-6 0.987787,-0.345863 1.236816,-1.037597 0.254552,-0.691729 0.38183,-1.734859 0.381836,-3.129395 -6e-6,-1.38899 -0.127284,-2.43212 -0.381836,-3.129395 -0.249029,-0.702789 -0.6613,-1.054188 -1.236816,-1.054199 -0.293299,1.1e-5 -0.542322,0.08855 -0.74707,0.265625 -0.199223,0.177093 -0.362471,0.439951 -0.489746,0.788574 -0.127282,0.348642 -0.218591,0.785816 -0.273926,1.311524 -0.05534,0.52019 -0.08301,1.126146 -0.08301,1.817871"
       id="path2820"
       style="font-size:17px;font-weight:bold;fill:#ffffff;-inkscape-font-specification:Bitstream Vera Sans Bold" />
  </g>
</svg>
