<?xml version="1.0" encoding="UTF-8" standalone="no"?>
<!-- Created with Inkscape (http://www.inkscape.org/) -->

<svg
   xmlns:svg="http://www.w3.org/2000/svg"
   xmlns="http://www.w3.org/2000/svg"
   version="1.0"
   width="32"
   height="32"
   id="svg2">
  <defs
     id="defs15" />
  <circle
     cx="16"
     cy="16"
     r="14"
     id="circle"
     style="fill:#336699" />
  <g
     id="text2820"
     style="font-size:10px;font-style:normal;font-variant:normal;font-weight:normal;font-stretch:normal;text-align:center;text-anchor:middle;fill:#ffffff;fill-opacity:1;stroke:none;font-family:Droid Sans;-inkscape-font-specification:Droid Sans">
    <path
       d="m 15.257917,22.008438 -8.143066,0 0,-1.784668 2.8554687,-3.07959 c 0.3596963,-0.387364 0.6861933,-0.744297 0.9794923,-1.0708 0.293289,-0.326492 0.54508,-0.644688 0.755371,-0.95459 0.210281,-0.309889 0.37353,-0.625318 0.489746,-0.946289 0.116205,-0.320956 0.174311,-0.666821 0.174317,-1.037598 -6e-6,-0.409496 -0.124518,-0.727692 -0.373536,-0.95459 -0.243495,-0.226878 -0.572759,-0.340322 -0.987793,-0.340332 -0.437178,10e-6 -0.857751,0.10792 -1.2617183,0.323731 C 9.3422244,12.379541 8.918885,12.68667 8.4761791,13.085098 L 7.0816479,11.433243 C 7.3306704,11.206366 7.5907613,10.990545 7.8619213,10.785782 8.1330785,10.575507 8.4319063,10.390123 8.7584057,10.22963 9.0849004,10.06916 9.4446006,9.9418812 9.8375072,9.8477936 10.230407,9.7481965 10.670348,9.6983918 11.157331,9.6983795 c 0.58105,1.23e-5 1.101232,0.080253 1.560547,0.2407227 0.464837,0.1604938 0.860508,0.3901488 1.187012,0.6889648 0.32649,0.293305 0.575513,0.650239 0.74707,1.070801 0.177075,0.420583 0.265617,0.893727 0.265625,1.419433 -8e-6,0.47592 -0.08302,0.932463 -0.249023,1.369629 -0.166024,0.431648 -0.392912,0.857754 -0.680664,1.278321 -0.287768,0.415044 -0.622566,0.830083 -1.004395,1.245117 -0.376308,0.40951 -0.780279,0.827315 -1.211914,1.253418 l -1.460937,1.469238 0,0.116211 4.947265,0 0,2.158203"
       id="path2818"
       style="font-size:17px;font-weight:bold;fill:#ffffff;-inkscape-font-specification:Bitstream Vera Sans Bold" />
    <path
       d="m 20.761335,14.255508 c 0.520177,8e-6 1.004389,0.08025 1.452637,0.240723 0.448235,0.160489 0.838372,0.395678 1.17041,0.705566 0.332024,0.309903 0.592114,0.697272 0.780274,1.16211 0.188142,0.459315 0.282218,0.987797 0.282226,1.585449 -8e-6,0.658532 -0.102385,1.250654 -0.307129,1.776367 -0.20476,0.520184 -0.506355,0.962892 -0.904785,1.328125 -0.398444,0.359701 -0.893724,0.636394 -1.48584,0.830078 -0.586594,0.193685 -1.261723,0.290528 -2.02539,0.290528 -0.304366,0 -0.605961,-0.01384 -0.904785,-0.0415 -0.298831,-0.02767 -0.586591,-0.06917 -0.863282,-0.124512 -0.27116,-0.04981 -0.531251,-0.116211 -0.780273,-0.199219 -0.243491,-0.08301 -0.464845,-0.17985 -0.664063,-0.290527 l 0,-2.216309 c 0.193684,0.11068 0.417805,0.215823 0.672364,0.31543 0.254555,0.09408 0.517413,0.177086 0.788574,0.249024 0.27669,0.06641 0.553383,0.121746 0.830078,0.166015 0.276689,0.03874 0.539547,0.05811 0.788574,0.05811 0.741532,2e-6 1.305985,-0.152179 1.69336,-0.456543 0.387364,-0.309893 0.581048,-0.799639 0.581054,-1.469239 -6e-6,-0.597651 -0.190924,-1.051427 -0.572754,-1.361328 -0.376307,-0.315424 -0.960128,-0.473139 -1.751464,-0.473144 -0.143884,5e-6 -0.298832,0.0083 -0.464844,0.0249 -0.160485,0.01661 -0.320967,0.03874 -0.481446,0.06641 -0.15495,0.02768 -0.304364,0.05811 -0.448242,0.09131 -0.143882,0.02767 -0.268394,0.05811 -0.373535,0.09131 l -1.020996,-0.547852 0.456543,-6.1840821 6.408203,0 0,2.1748051 -4.183594,0 -0.199218,2.382324 c 0.177079,-0.03873 0.381832,-0.07747 0.614257,-0.116211 0.237952,-0.03873 0.542314,-0.0581 0.913086,-0.05811"
       id="path2820"
       style="font-size:17px;font-weight:bold;fill:#ffffff;-inkscape-font-specification:Bitstream Vera Sans Bold" />
  </g>
</svg>
