<?xml version="1.0" encoding="UTF-8" standalone="no"?>
<!-- Created with Inkscape (http://www.inkscape.org/) -->

<svg
   xmlns:svg="http://www.w3.org/2000/svg"
   xmlns="http://www.w3.org/2000/svg"
   version="1.0"
   width="32"
   height="32"
   id="svg2">
  <defs
     id="defs15" />
  <circle
     cx="16"
     cy="16"
     r="14"
     id="circle"
     style="fill:#336699" />
  <g
     id="text2820"
     style="font-size:10px;font-style:normal;font-variant:normal;font-weight:normal;font-stretch:normal;text-align:center;text-anchor:middle;fill:#ffffff;fill-opacity:1;stroke:none;font-family:Droid Sans;-inkscape-font-specification:Droid Sans">
    <path
       d="m 14.784773,12.587051 c -8e-6,0.420582 -0.06918,0.799651 -0.20752,1.137207 -0.13282,0.33204 -0.318204,0.625334 -0.556152,0.879883 -0.232429,0.249031 -0.509122,0.459317 -0.830078,0.63086 -0.315436,0.166022 -0.658535,0.2933 -1.029297,0.381836 l 0,0.0498 c 0.979485,0.121751 1.721021,0.420579 2.224609,0.896485 0.503573,0.470382 0.755363,1.106775 0.755371,1.909179 -8e-6,0.531253 -0.09685,1.023766 -0.290527,1.477539 -0.188159,0.448244 -0.481453,0.83838 -0.879883,1.170411 -0.39291,0.332031 -0.890957,0.592122 -1.49414,0.780273 -0.597662,0.182617 -1.303228,0.273926 -2.1167,0.273926 -0.6529976,0 -1.2672548,-0.05534 -1.842773,-0.166016 C 7.9421607,21.903295 7.4053774,21.740046 6.9073315,21.518692 l 0,-2.183105 c 0.2490227,0.132815 0.5118805,0.249025 0.7885742,0.348632 0.2766912,0.09961 0.5533836,0.185387 0.8300781,0.257325 0.2766904,0.06641 0.5478489,0.116212 0.8134766,0.149414 0.2711557,0.0332 0.5257127,0.04981 0.7636716,0.0498 0.475908,2e-6 0.871578,-0.04427 1.187012,-0.132812 0.315424,-0.08854 0.567215,-0.213051 0.755371,-0.373535 0.188145,-0.16048 0.320958,-0.351397 0.398438,-0.572754 0.083,-0.226885 0.124505,-0.473141 0.124511,-0.73877 -6e-6,-0.249019 -0.05258,-0.47314 -0.157715,-0.672363 -0.09962,-0.204748 -0.26563,-0.376297 -0.498046,-0.514648 C 11.685809,16.992 11.386981,16.881323 11.016218,16.803844 10.645446,16.726374 10.188903,16.687639 9.6465893,16.687633 l -0.8632813,0 0,-1.801269 0.8466797,0 c 0.5091113,7e-6 0.9324503,-0.04426 1.2700193,-0.132813 0.337561,-0.09407 0.605952,-0.218579 0.805176,-0.373535 0.204747,-0.160474 0.348627,-0.345858 0.431641,-0.556152 0.083,-0.210278 0.124506,-0.434399 0.124511,-0.672363 -5e-6,-0.431632 -0.135585,-0.769197 -0.406738,-1.012696 -0.26563,-0.243479 -0.688969,-0.365224 -1.270019,-0.365234 -0.265629,10e-6 -0.514653,0.02768 -0.7470708,0.08301 -0.2268911,0.04981 -0.4399443,0.116221 -0.6391601,0.199218 -0.1936875,0.07748 -0.3735376,0.166026 -0.5395508,0.265625 -0.1604838,0.09409 -0.3071308,0.188161 -0.4399414,0.282227 L 6.923933,10.893692 c 0.2324212,-0.171538 0.4842113,-0.329253 0.7553711,-0.473145 0.2766912,-0.143868 0.575519,-0.26838 0.8964844,-0.373535 0.3209611,-0.1106647 0.6668266,-0.1964393 1.0375977,-0.2573239 0.3707646,-0.06086 0.7664348,-0.091296 1.1870118,-0.091309 0.597651,1.23e-5 1.139968,0.066419 1.626953,0.1992188 0.492507,0.1272911 0.913079,0.3154421 1.261719,0.5644531 0.348625,0.243501 0.617017,0.545096 0.805176,0.904786 0.193676,0.354177 0.290519,0.760914 0.290527,1.220214"
       id="path2818"
       style="font-size:17px;font-weight:bold;fill:#ffffff;-inkscape-font-specification:Bitstream Vera Sans Bold" />
    <path
       d="m 16.428328,16.853653 c -1e-6,-0.581049 0.03044,-1.159336 0.09131,-1.734863 0.06641,-0.575514 0.17985,-1.126132 0.340332,-1.651856 0.166015,-0.531241 0.387369,-1.023753 0.664063,-1.477539 0.282224,-0.453765 0.636391,-0.846669 1.0625,-1.178711 0.431637,-0.337553 0.946285,-0.600411 1.543945,-0.788574 0.603185,-0.1936727 1.305984,-0.2905151 2.108398,-0.2905274 0.116205,1.23e-5 0.243483,0.00278 0.381836,0.0083 0.13834,0.00555 0.276686,0.013847 0.415039,0.024902 0.143873,0.00555 0.282219,0.016614 0.415039,0.033203 0.132805,0.016614 0.251783,0.035982 0.356934,0.058105 l 0,2.0502924 c -0.210294,-0.04979 -0.434415,-0.08853 -0.672363,-0.116211 -0.232429,-0.03319 -0.467618,-0.04979 -0.705567,-0.0498 -0.747076,1e-5 -1.361333,0.09408 -1.842773,0.282226 -0.48145,0.182627 -0.863285,0.439951 -1.145508,0.771973 -0.28223,0.33204 -0.484215,0.730477 -0.605957,1.195312 -0.116214,0.464852 -0.188154,0.9795 -0.21582,1.543946 l 0.09961,0 c 0.110674,-0.199212 0.243487,-0.384596 0.398438,-0.556153 0.160478,-0.177076 0.345862,-0.32649 0.556152,-0.448242 0.210282,-0.127271 0.445471,-0.22688 0.705566,-0.298828 0.265621,-0.07193 0.561681,-0.107902 0.888184,-0.10791 0.52571,8e-6 0.998854,0.08578 1.419434,0.257324 0.420565,0.171557 0.774732,0.42058 1.0625,0.74707 0.293286,0.326504 0.517407,0.727708 0.672363,1.203614 0.154939,0.475916 0.232413,1.021 0.232422,1.635254 -9e-6,0.658532 -0.09408,1.247887 -0.282227,1.768066 -0.182625,0.520184 -0.445483,0.962892 -0.788574,1.328125 -0.343106,0.359701 -0.758145,0.636394 -1.245117,0.830078 -0.486985,0.188151 -1.034836,0.282227 -1.643555,0.282227 -0.59766,0 -1.156579,-0.105144 -1.676758,-0.31543 -0.520185,-0.21582 -0.97396,-0.542317 -1.361328,-0.979492 -0.381837,-0.437173 -0.683432,-0.987791 -0.904785,-1.651856 -0.215821,-0.669593 -0.323731,-1.460933 -0.32373,-2.374023 m 4.216796,3.270508 c 0.226883,2e-6 0.431636,-0.0415 0.614258,-0.124512 0.188146,-0.08854 0.348627,-0.218585 0.481446,-0.390137 0.13834,-0.17708 0.243483,-0.398434 0.315429,-0.664062 0.07747,-0.265622 0.116205,-0.581051 0.116211,-0.946289 -6e-6,-0.592118 -0.124518,-1.056961 -0.373535,-1.394531 -0.243495,-0.343094 -0.61703,-0.514643 -1.120605,-0.514649 -0.254562,6e-6 -0.486984,0.04981 -0.697266,0.149414 -0.21029,0.09962 -0.390141,0.229661 -0.539551,0.390137 -0.149417,0.160487 -0.265628,0.340337 -0.348633,0.539551 -0.07748,0.199223 -0.116214,0.401209 -0.116211,0.605957 -3e-6,0.28223 0.0332,0.564456 0.09961,0.846679 0.07194,0.276696 0.17708,0.528486 0.315429,0.755371 0.143877,0.221357 0.318193,0.401207 0.52295,0.539551 0.210282,0.138349 0.453771,0.207522 0.730468,0.20752"
       id="path2820"
       style="font-size:17px;font-weight:bold;fill:#ffffff;-inkscape-font-specification:Bitstream Vera Sans Bold" />
  </g>
</svg>
