<?xml version="1.0" encoding="UTF-8" standalone="no"?>
<!-- Created with Inkscape (http://www.inkscape.org/) -->

<svg
   xmlns:svg="http://www.w3.org/2000/svg"
   xmlns="http://www.w3.org/2000/svg"
   version="1.0"
   width="32"
   height="32"
   id="svg2">
  <defs
     id="defs15" />
  <circle
     cx="16"
     cy="16"
     r="14"
     id="circle"
     style="fill:#336699" />
  <g
     id="text2820"
     style="font-size:10px;font-style:normal;font-variant:normal;font-weight:normal;font-stretch:normal;text-align:center;text-anchor:middle;fill:#ffffff;fill-opacity:1;stroke:none;font-family:Droid Sans;-inkscape-font-specification:Droid Sans">
    <path
       d="m 13.215925,22.008438 -2.564941,0 0,-7.022461 c -4e-6,-0.143873 -4e-6,-0.315422 0,-0.514648 0.0055,-0.204745 0.01106,-0.415031 0.0166,-0.63086 0.01106,-0.221345 0.01936,-0.442699 0.0249,-0.664062 0.01106,-0.221345 0.01936,-0.423331 0.0249,-0.605957 -0.02767,0.03321 -0.07471,0.08302 -0.141113,0.149414 -0.06641,0.06642 -0.141118,0.141122 -0.224121,0.224121 -0.08301,0.07748 -0.168787,0.157724 -0.257325,0.240723 -0.08854,0.08302 -0.1743194,0.157723 -0.2573238,0.224121 L 8.442976,14.529434 7.1978588,12.985489 11.107527,9.8726959 l 2.108398,0 0,12.1357421"
       id="path2818"
       style="font-size:17px;font-weight:bold;fill:#ffffff;-inkscape-font-specification:Bitstream Vera Sans Bold" />
    <path
       d="m 24.148054,12.587051 c -8e-6,0.420582 -0.06918,0.799651 -0.207519,1.137207 -0.132821,0.33204 -0.318205,0.625334 -0.556153,0.879883 -0.232429,0.249031 -0.509121,0.459317 -0.830078,0.63086 -0.315436,0.166022 -0.658535,0.2933 -1.029297,0.381836 l 0,0.0498 c 0.979486,0.121751 1.721021,0.420579 2.22461,0.896485 0.503572,0.470382 0.755362,1.106775 0.755371,1.909179 -9e-6,0.531253 -0.09685,1.023766 -0.290528,1.477539 -0.188159,0.448244 -0.481453,0.83838 -0.879882,1.170411 -0.392911,0.332031 -0.890958,0.592122 -1.494141,0.780273 -0.597662,0.182617 -1.303227,0.273926 -2.116699,0.273926 -0.652998,0 -1.267256,-0.05534 -1.842774,-0.166016 -0.575522,-0.105143 -1.112305,-0.268392 -1.610351,-0.489746 l 0,-2.183105 c 0.249022,0.132815 0.51188,0.249025 0.788574,0.348632 0.276691,0.09961 0.553384,0.185387 0.830078,0.257325 0.27669,0.06641 0.547849,0.116212 0.813477,0.149414 0.271155,0.0332 0.525712,0.04981 0.763671,0.0498 0.475908,2e-6 0.871578,-0.04427 1.187012,-0.132812 0.315425,-0.08854 0.567215,-0.213051 0.755371,-0.373535 0.188146,-0.16048 0.320958,-0.351397 0.398438,-0.572754 0.083,-0.226885 0.124505,-0.473141 0.124512,-0.73877 -7e-6,-0.249019 -0.05258,-0.47314 -0.157715,-0.672363 -0.09962,-0.20474 -0.265631,-0.376289 -0.498047,-0.51464 -0.226893,-0.143876 -0.525721,-0.254553 -0.896485,-0.332032 -0.370772,-0.07747 -0.827315,-0.116205 -1.369628,-0.116211 l -0.863282,0 0,-1.801269 0.84668,0 c 0.509111,7e-6 0.93245,-0.04426 1.270019,-0.132813 0.337561,-0.09407 0.605952,-0.218579 0.805176,-0.373535 0.204747,-0.160474 0.348627,-0.345858 0.431641,-0.556152 0.083,-0.210278 0.124506,-0.434399 0.124512,-0.672363 -6e-6,-0.431632 -0.135585,-0.769197 -0.406739,-1.012696 -0.26563,-0.243479 -0.688969,-0.365224 -1.270019,-0.365234 -0.265629,1e-5 -0.514652,0.02768 -0.747071,0.08301 -0.226891,0.04981 -0.439944,0.116221 -0.63916,0.199218 -0.193687,0.07748 -0.373537,0.166026 -0.53955,0.265625 -0.160484,0.09409 -0.307131,0.188161 -0.439942,0.282227 l -1.294922,-1.709961 c 0.232421,-0.171538 0.484212,-0.329253 0.755371,-0.473145 0.276692,-0.143868 0.575519,-0.26838 0.896485,-0.373535 0.320961,-0.1106647 0.666826,-0.1964393 1.037597,-0.2573239 0.370765,-0.06086 0.766435,-0.091296 1.187012,-0.091309 0.597651,1.23e-5 1.139969,0.066419 1.626953,0.1992188 0.492507,0.1272911 0.913079,0.3154421 1.261719,0.5644531 0.348625,0.243501 0.617017,0.545096 0.805176,0.904786 0.193676,0.354177 0.290519,0.760914 0.290527,1.220214"
       id="path2820"
       style="font-size:17px;font-weight:bold;fill:#ffffff;-inkscape-font-specification:Bitstream Vera Sans Bold" />
  </g>
</svg>
