<?xml version="1.0" encoding="UTF-8" standalone="no"?>
<!-- Created with Inkscape (http://www.inkscape.org/) -->

<svg
   xmlns:svg="http://www.w3.org/2000/svg"
   xmlns="http://www.w3.org/2000/svg"
   version="1.0"
   width="32"
   height="32"
   id="svg2">
  <defs
     id="defs15" />
  <circle
     cx="16"
     cy="16"
     r="14"
     id="circle"
     style="fill:#336699" />
  <g
     id="text2820"
     style="font-size:10px;font-style:normal;font-variant:normal;font-weight:normal;font-stretch:normal;text-align:center;text-anchor:middle;fill:#ffffff;fill-opacity:1;stroke:none;font-family:Droid Sans;-inkscape-font-specification:Droid Sans">
    <path
       d="m 13.215925,22.008438 -2.564941,0 0,-7.022461 c -4e-6,-0.143873 -4e-6,-0.315422 0,-0.514648 0.0055,-0.204745 0.01106,-0.415031 0.0166,-0.63086 0.01106,-0.221345 0.01936,-0.442699 0.0249,-0.664062 0.01106,-0.221345 0.01936,-0.423331 0.0249,-0.605957 -0.02767,0.03321 -0.07471,0.08302 -0.141113,0.149414 -0.06641,0.06642 -0.141118,0.141122 -0.224121,0.224121 -0.08301,0.07748 -0.168787,0.157724 -0.257325,0.240723 -0.08854,0.08302 -0.1743194,0.157723 -0.2573238,0.224121 L 8.442976,14.529434 7.1978588,12.985489 11.107527,9.8726959 l 2.108398,0 0,12.1357421"
       id="path2818"
       style="font-size:17px;font-weight:bold;fill:#ffffff;-inkscape-font-specification:Bitstream Vera Sans Bold" />
    <path
       d="m 16.428328,16.853653 c -1e-6,-0.581049 0.03044,-1.159336 0.09131,-1.734863 0.06641,-0.575514 0.17985,-1.126132 0.340332,-1.651856 0.166015,-0.531241 0.387369,-1.023753 0.664063,-1.477539 0.282224,-0.453765 0.636391,-0.846669 1.0625,-1.178711 0.431637,-0.337553 0.946285,-0.600411 1.543945,-0.788574 0.603185,-0.1936727 1.305984,-0.2905151 2.108398,-0.2905274 0.116205,1.23e-5 0.243483,0.00278 0.381836,0.0083 0.13834,0.00555 0.276686,0.013847 0.415039,0.024902 0.143873,0.00555 0.282219,0.016614 0.415039,0.033203 0.132805,0.016614 0.251783,0.035982 0.356934,0.058105 l 0,2.0502924 c -0.210294,-0.04979 -0.434415,-0.08853 -0.672363,-0.116211 -0.232429,-0.03319 -0.467618,-0.04979 -0.705567,-0.0498 -0.747076,1e-5 -1.361333,0.09408 -1.842773,0.282226 -0.48145,0.182627 -0.863285,0.439951 -1.145508,0.771973 -0.28223,0.33204 -0.484215,0.730477 -0.605957,1.195312 -0.116214,0.464852 -0.188154,0.9795 -0.21582,1.543946 l 0.09961,0 c 0.110674,-0.199212 0.243487,-0.384596 0.398438,-0.556153 0.160478,-0.177076 0.345862,-0.32649 0.556152,-0.448242 0.210282,-0.127271 0.445471,-0.22688 0.705566,-0.298828 0.265621,-0.07193 0.561681,-0.107902 0.888184,-0.10791 0.52571,8e-6 0.998854,0.08578 1.419434,0.257324 0.420565,0.171557 0.774732,0.42058 1.0625,0.74707 0.293286,0.326504 0.517407,0.727708 0.672363,1.203614 0.154939,0.475916 0.232413,1.021 0.232422,1.635254 -9e-6,0.658532 -0.09408,1.247887 -0.282227,1.768066 -0.182625,0.520184 -0.445483,0.962892 -0.788574,1.328125 -0.343106,0.359701 -0.758145,0.636394 -1.245117,0.830078 -0.486985,0.188151 -1.034836,0.282227 -1.643555,0.282227 -0.59766,0 -1.156579,-0.105144 -1.676758,-0.31543 -0.520185,-0.21582 -0.97396,-0.542317 -1.361328,-0.979492 -0.381837,-0.437173 -0.683432,-0.987791 -0.904785,-1.651856 -0.215821,-0.669593 -0.323731,-1.460933 -0.32373,-2.374023 m 4.216796,3.270508 c 0.226883,2e-6 0.431636,-0.0415 0.614258,-0.124512 0.188146,-0.08854 0.348627,-0.218585 0.481446,-0.390137 0.13834,-0.17708 0.243483,-0.398434 0.315429,-0.664062 0.07747,-0.265622 0.116205,-0.581051 0.116211,-0.946289 -6e-6,-0.592118 -0.124518,-1.056961 -0.373535,-1.394531 -0.243495,-0.343094 -0.61703,-0.514643 -1.120605,-0.514649 -0.254562,6e-6 -0.486984,0.04981 -0.697266,0.149414 -0.21029,0.09962 -0.390141,0.229661 -0.539551,0.390137 -0.149417,0.160487 -0.265628,0.340337 -0.348633,0.539551 -0.07748,0.199223 -0.116214,0.401209 -0.116211,0.605957 -3e-6,0.28223 0.0332,0.564456 0.09961,0.846679 0.07194,0.276696 0.17708,0.528486 0.315429,0.755371 0.143877,0.221357 0.318193,0.401207 0.52295,0.539551 0.210282,0.138349 0.453771,0.207522 0.730468,0.20752"
       id="path2820"
       style="font-size:17px;font-weight:bold;fill:#ffffff;-inkscape-font-specification:Bitstream Vera Sans Bold" />
  </g>
</svg>
