<?xml version="1.0" encoding="UTF-8" standalone="no"?>
<!-- Created with Inkscape (http://www.inkscape.org/) -->

<svg
   xmlns:svg="http://www.w3.org/2000/svg"
   xmlns="http://www.w3.org/2000/svg"
   version="1.0"
   width="32"
   height="32"
   id="svg2">
  <defs
     id="defs15" />
  <circle
     cx="16"
     cy="16"
     r="14"
     id="circle"
     style="fill:#336699" />
  <g
     id="text2820"
     style="font-size:10px;font-style:normal;font-variant:normal;font-weight:normal;font-stretch:normal;text-align:center;text-anchor:middle;fill:#ffffff;fill-opacity:1;stroke:none;font-family:Droid Sans;-inkscape-font-specification:Droid Sans">
    <path
       d="m 15.257917,22.008438 -8.143066,0 0,-1.784668 2.8554687,-3.07959 c 0.3596963,-0.387364 0.6861933,-0.744297 0.9794923,-1.0708 0.293289,-0.326492 0.54508,-0.644688 0.755371,-0.95459 0.210281,-0.309889 0.37353,-0.625318 0.489746,-0.946289 0.116205,-0.320956 0.174311,-0.666821 0.174317,-1.037598 -6e-6,-0.409496 -0.124518,-0.727692 -0.373536,-0.95459 -0.243495,-0.226878 -0.572759,-0.340322 -0.987793,-0.340332 -0.437178,10e-6 -0.857751,0.10792 -1.2617183,0.323731 C 9.3422244,12.379541 8.918885,12.68667 8.4761791,13.085098 L 7.0816479,11.433243 C 7.3306704,11.206366 7.5907613,10.990545 7.8619213,10.785782 8.1330785,10.575507 8.4319063,10.390123 8.7584057,10.22963 9.0849004,10.06916 9.4446006,9.9418812 9.8375072,9.8477936 10.230407,9.7481965 10.670348,9.6983918 11.157331,9.6983795 c 0.58105,1.23e-5 1.101232,0.080253 1.560547,0.2407227 0.464837,0.1604938 0.860508,0.3901488 1.187012,0.6889648 0.32649,0.293305 0.575513,0.650239 0.74707,1.070801 0.177075,0.420583 0.265617,0.893727 0.265625,1.419433 -8e-6,0.47592 -0.08302,0.932463 -0.249023,1.369629 -0.166024,0.431648 -0.392912,0.857754 -0.680664,1.278321 -0.287768,0.415044 -0.622566,0.830083 -1.004395,1.245117 -0.376308,0.40951 -0.780279,0.827315 -1.211914,1.253418 l -1.460937,1.469238 0,0.116211 4.947265,0 0,2.158203"
       id="path2818"
       style="font-size:17px;font-weight:bold;fill:#ffffff;-inkscape-font-specification:Bitstream Vera Sans Bold" />
    <path
       d="m 16.428328,16.853653 c -1e-6,-0.581049 0.03044,-1.159336 0.09131,-1.734863 0.06641,-0.575514 0.17985,-1.126132 0.340332,-1.651856 0.166015,-0.531241 0.387369,-1.023753 0.664063,-1.477539 0.282224,-0.453765 0.636391,-0.846669 1.0625,-1.178711 0.431637,-0.337553 0.946285,-0.600411 1.543945,-0.788574 0.603185,-0.1936727 1.305984,-0.2905151 2.108398,-0.2905274 0.116205,1.23e-5 0.243483,0.00278 0.381836,0.0083 0.13834,0.00555 0.276686,0.013847 0.415039,0.024902 0.143873,0.00555 0.282219,0.016614 0.415039,0.033203 0.132805,0.016614 0.251783,0.035982 0.356934,0.058105 l 0,2.0502924 c -0.210294,-0.04979 -0.434415,-0.08853 -0.672363,-0.116211 -0.232429,-0.03319 -0.467618,-0.04979 -0.705567,-0.0498 -0.747076,1e-5 -1.361333,0.09408 -1.842773,0.282226 -0.48145,0.182627 -0.863285,0.439951 -1.145508,0.771973 -0.28223,0.33204 -0.484215,0.730477 -0.605957,1.195312 -0.116214,0.464852 -0.188154,0.9795 -0.21582,1.543946 l 0.09961,0 c 0.110674,-0.199212 0.243487,-0.384596 0.398438,-0.556153 0.160478,-0.177076 0.345862,-0.32649 0.556152,-0.448242 0.210282,-0.127271 0.445471,-0.22688 0.705566,-0.298828 0.265621,-0.07193 0.561681,-0.107902 0.888184,-0.10791 0.52571,8e-6 0.998854,0.08578 1.419434,0.257324 0.420565,0.171557 0.774732,0.42058 1.0625,0.74707 0.293286,0.326504 0.517407,0.727708 0.672363,1.203614 0.154939,0.475916 0.232413,1.021 0.232422,1.635254 -9e-6,0.658532 -0.09408,1.247887 -0.282227,1.768066 -0.182625,0.520184 -0.445483,0.962892 -0.788574,1.328125 -0.343106,0.359701 -0.758145,0.636394 -1.245117,0.830078 -0.486985,0.188151 -1.034836,0.282227 -1.643555,0.282227 -0.59766,0 -1.156579,-0.105144 -1.676758,-0.31543 -0.520185,-0.21582 -0.97396,-0.542317 -1.361328,-0.979492 -0.381837,-0.437173 -0.683432,-0.987791 -0.904785,-1.651856 -0.215821,-0.669593 -0.323731,-1.460933 -0.32373,-2.374023 m 4.216796,3.270508 c 0.226883,2e-6 0.431636,-0.0415 0.614258,-0.124512 0.188146,-0.08854 0.348627,-0.218585 0.481446,-0.390137 0.13834,-0.17708 0.243483,-0.398434 0.315429,-0.664062 0.07747,-0.265622 0.116205,-0.581051 0.116211,-0.946289 -6e-6,-0.592118 -0.124518,-1.056961 -0.373535,-1.394531 -0.243495,-0.343094 -0.61703,-0.514643 -1.120605,-0.514649 -0.254562,6e-6 -0.486984,0.04981 -0.697266,0.149414 -0.21029,0.09962 -0.390141,0.229661 -0.539551,0.390137 -0.149417,0.160487 -0.265628,0.340337 -0.348633,0.539551 -0.07748,0.199223 -0.116214,0.401209 -0.116211,0.605957 -3e-6,0.28223 0.0332,0.564456 0.09961,0.846679 0.07194,0.276696 0.17708,0.528486 0.315429,0.755371 0.143877,0.221357 0.318193,0.401207 0.52295,0.539551 0.210282,0.138349 0.453771,0.207522 0.730468,0.20752"
       id="path2820"
       style="font-size:17px;font-weight:bold;fill:#ffffff;-inkscape-font-specification:Bitstream Vera Sans Bold" />
  </g>
</svg>
