<?xml version="1.0" encoding="UTF-8" standalone="no"?>
<!-- Created with Inkscape (http://www.inkscape.org/) -->

<svg
   xmlns:svg="http://www.w3.org/2000/svg"
   xmlns="http://www.w3.org/2000/svg"
   version="1.0"
   width="32"
   height="32"
   id="svg2">
  <defs
     id="defs15" />
  <circle
     cx="16"
     cy="16"
     r="14"
     id="circle"
     style="fill:#336699" />
  <g
     id="text2820"
     style="font-size:10px;font-style:normal;font-variant:normal;font-weight:normal;font-stretch:normal;text-align:center;text-anchor:middle;fill:#ffffff;fill-opacity:1;stroke:none;font-family:Droid Sans;-inkscape-font-specification:Droid Sans">
    <path
       d="m 15.440535,19.493301 -1.460938,0 0,2.515137 -2.498535,0 0,-2.515137 -5.0136719,0 0,-1.784668 5.1547849,-7.8359371 2.357422,0 0,7.6284181 1.460938,0 0,1.992187 m -3.959473,-1.992187 0,-2.058594 c -5e-6,-0.07193 -5e-6,-0.17431 0,-0.307129 0.0055,-0.138339 0.01106,-0.293287 0.0166,-0.464844 0.0055,-0.171541 0.01106,-0.348625 0.0166,-0.53125 0.01106,-0.182609 0.01936,-0.356925 0.0249,-0.522949 0.01106,-0.166007 0.01936,-0.309887 0.0249,-0.43164 0.01106,-0.12727 0.01936,-0.218579 0.0249,-0.273926 l -0.07471,0 c -0.09961,0.232431 -0.213058,0.478687 -0.340332,0.738769 -0.121749,0.2601 -0.262863,0.520191 -0.42334,0.780274 l -2.0253904,3.071289 2.7558594,0"
       id="path2818"
       style="font-size:17px;font-weight:bold;fill:#ffffff;-inkscape-font-specification:Bitstream Vera Sans Bold" />
    <path
       d="m 24.6378,15.940567 c -9e-6,0.979497 -0.07748,1.853845 -0.232422,2.623047 -0.149422,0.769208 -0.392912,1.422202 -0.730468,1.958984 -0.332039,0.536785 -0.763679,0.94629 -1.294922,1.228516 -0.525722,0.282226 -1.162115,0.42334 -1.90918,0.42334 -0.702803,0 -1.314294,-0.141114 -1.834473,-0.42334 -0.520184,-0.282226 -0.951824,-0.691731 -1.294922,-1.228516 -0.3431,-0.536782 -0.600424,-1.189776 -0.771972,-1.958984 -0.166016,-0.769202 -0.249024,-1.64355 -0.249024,-2.623047 0,-0.979485 0.07471,-1.8566 0.224121,-2.631348 0.154948,-0.77473 0.398437,-1.430491 0.730469,-1.967285 0.33203,-0.536772 0.760903,-0.946277 1.286621,-1.228515 0.525713,-0.2877487 1.162106,-0.4316287 1.90918,-0.431641 0.69726,1.23e-5 1.305984,0.1411254 1.826172,0.42334 0.520175,0.282238 0.954582,0.691743 1.303223,1.228515 0.348624,0.536794 0.608715,1.192555 0.780273,1.967286 0.171541,0.774747 0.257315,1.654629 0.257324,2.639648 m -5.760742,0 c -3e-6,1.383468 0.118975,2.423832 0.356934,3.121094 0.237952,0.697268 0.650223,1.0459 1.236816,1.045898 0.575516,2e-6 0.987787,-0.345863 1.236816,-1.037597 0.254552,-0.691729 0.38183,-1.734859 0.381836,-3.129395 -6e-6,-1.38899 -0.127284,-2.43212 -0.381836,-3.129395 -0.249029,-0.702789 -0.6613,-1.054188 -1.236816,-1.054199 -0.293299,1.1e-5 -0.542322,0.08855 -0.74707,0.265625 -0.199223,0.177093 -0.362471,0.439951 -0.489746,0.788574 -0.127282,0.348642 -0.218591,0.785816 -0.273926,1.311524 -0.05534,0.52019 -0.08301,1.126146 -0.08301,1.817871"
       id="path2820"
       style="font-size:17px;font-weight:bold;fill:#ffffff;-inkscape-font-specification:Bitstream Vera Sans Bold" />
  </g>
</svg>
