<?xml version="1.0" encoding="UTF-8" standalone="no"?>
<!-- Created with Inkscape (http://www.inkscape.org/) -->

<svg
   xmlns:svg="http://www.w3.org/2000/svg"
   xmlns="http://www.w3.org/2000/svg"
   version="1.0"
   width="32"
   height="32"
   id="svg2">
  <defs
     id="defs15" />
  <circle
     cx="16"
     cy="16"
     r="14"
     id="circle"
     style="fill:#336699" />
  <g
     id="text2820"
     style="font-size:10px;font-style:normal;font-variant:normal;font-weight:normal;font-stretch:normal;text-align:start;text-anchor:start;fill:#ffffff;fill-opacity:1;stroke:none;font-family:Droid Sans;-inkscape-font-specification:Droid Sans">
    <path
       d="m 16.035597,14.255508 c 0.520177,8e-6 1.004388,0.08025 1.452637,0.240723 0.448235,0.160489 0.838371,0.395678 1.17041,0.705566 0.332023,0.309903 0.592114,0.697272 0.780273,1.16211 0.188143,0.459315 0.282218,0.987797 0.282227,1.585449 -9e-6,0.658532 -0.102385,1.250654 -0.307129,1.776367 -0.204761,0.520184 -0.506356,0.962892 -0.904785,1.328125 -0.398445,0.359701 -0.893724,0.636394 -1.48584,0.830078 -0.586594,0.193685 -1.261724,0.290528 -2.025391,0.290528 -0.304365,0 -0.60596,-0.01384 -0.904785,-0.0415 -0.298831,-0.02767 -0.586591,-0.06917 -0.863281,-0.124512 -0.271161,-0.04981 -0.531252,-0.116211 -0.780274,-0.199219 -0.24349,-0.08301 -0.464844,-0.17985 -0.664062,-0.290527 l 0,-2.216309 c 0.193684,0.11068 0.417805,0.215823 0.672363,0.31543 0.254556,0.09408 0.517414,0.177086 0.788574,0.249024 0.276691,0.06641 0.553383,0.121746 0.830078,0.166015 0.27669,0.03874 0.539548,0.05811 0.788575,0.05811 0.741532,2e-6 1.305984,-0.152179 1.693359,-0.456543 0.387364,-0.309893 0.581049,-0.799639 0.581055,-1.469239 -6e-6,-0.597651 -0.190924,-1.051427 -0.572754,-1.361328 -0.376307,-0.315424 -0.960128,-0.473139 -1.751465,-0.473144 -0.143884,5e-6 -0.298832,0.0083 -0.464844,0.0249 -0.160485,0.01661 -0.320966,0.03874 -0.481445,0.06641 -0.154951,0.02768 -0.304365,0.05811 -0.448242,0.09131 -0.143883,0.02767 -0.268394,0.05811 -0.373535,0.09131 l -1.020996,-0.547852 0.456542,-6.1840821 6.408204,0 0,2.1748051 -4.183594,0 -0.199219,2.382324 c 0.17708,-0.03873 0.381832,-0.07747 0.614258,-0.116211 0.237951,-0.03873 0.542313,-0.0581 0.913086,-0.05811"
       id="path2818"
       style="font-size:17px;font-weight:bold;fill:#ffffff;-inkscape-font-specification:Bitstream Vera Sans Bold" />
  </g>
</svg>
