<?xml version="1.0" encoding="UTF-8" standalone="no"?>
<!-- Generator: Adobe Illustrator 14.0.0, SVG Export Plug-In . SVG Version: 6.00 Build 43363)  -->

<svg
   xmlns:dc="http://purl.org/dc/elements/1.1/"
   xmlns:cc="http://creativecommons.org/ns#"
   xmlns:rdf="http://www.w3.org/1999/02/22-rdf-syntax-ns#"
   xmlns:svg="http://www.w3.org/2000/svg"
   xmlns="http://www.w3.org/2000/svg"
   xmlns:xlink="http://www.w3.org/1999/xlink"
   xmlns:sodipodi="http://sodipodi.sourceforge.net/DTD/sodipodi-0.dtd"
   xmlns:inkscape="http://www.inkscape.org/namespaces/inkscape"
   version="1.1"
   id="Layer_1"
   x="0px"
   y="0px"
   width="500"
   height="88"
   viewBox="0 0 500 88"
   enable-background="new 0 0 543 197"
   xml:space="preserve"
   inkscape:version="0.48.1 r9760"
   sodipodi:docname="cloudstack_logo_rgb_FINAL.svg"><metadata
   id="metadata3261"><rdf:RDF><cc:Work
       rdf:about=""><dc:format>image/svg+xml</dc:format><dc:type
         rdf:resource="http://purl.org/dc/dcmitype/StillImage" /><dc:title></dc:title></cc:Work></rdf:RDF></metadata><defs
   id="defs3259" /><sodipodi:namedview
   pagecolor="#ffffff"
   bordercolor="#666666"
   borderopacity="1"
   objecttolerance="10"
   gridtolerance="10"
   guidetolerance="10"
   inkscape:pageopacity="0"
   inkscape:pageshadow="2"
   inkscape:window-width="1280"
   inkscape:window-height="753"
   id="namedview3257"
   showgrid="false"
   inkscape:zoom="0.94290976"
   inkscape:cx="135.75"
   inkscape:cy="98.5"
   inkscape:window-x="-3"
   inkscape:window-y="-3"
   inkscape:window-maximized="1"
   inkscape:current-layer="Layer_1" />
<pattern
   x="-123.5"
   y="403.5"
   width="322"
   height="182"
   patternUnits="userSpaceOnUse"
   id="Unnamed_Pattern"
   viewBox="0 -182 322 182"
   overflow="visible">
	<g
   id="g3165">
		<polygon
   fill="none"
   points="0,-182 322,-182 322,0 0,0   "
   id="polygon3167" />
		
			<linearGradient
   id="SVGID_1_"
   gradientUnits="userSpaceOnUse"
   x1="7745.8442"
   y1="-8448.6895"
   x2="7746.8442"
   y2="-8448.6895"
   gradientTransform="matrix(0 -182 -182 0 -1537500.375 1409743.625)">
			<stop
   offset="0"
   style="stop-color:#ABABAB"
   id="stop3170" />
			<stop
   offset="1"
   style="stop-color:#787878"
   id="stop3172" />
		</linearGradient>
		<polygon
   fill="url(#SVGID_1_)"
   points="322,0 322,-182 0,-182 0,0   "
   id="polygon3174" />
	</g>
</pattern>
<pattern
   x="-123.5"
   y="403.5"
   width="322"
   height="182"
   patternUnits="userSpaceOnUse"
   id="Unnamed_Pattern_1"
   viewBox="0 -182 322 182"
   overflow="visible">
	<g
   id="g3177">
		<polygon
   fill="none"
   points="0,-182 322,-182 322,0 0,0   "
   id="polygon3179" />
		
			<linearGradient
   id="SVGID_2_"
   gradientUnits="userSpaceOnUse"
   x1="7745.8442"
   y1="-8448.6895"
   x2="7746.8442"
   y2="-8448.6895"
   gradientTransform="matrix(0 -182 -182 0 -1537500.375 1409743.625)">
			<stop
   offset="0"
   style="stop-color:#ABABAB"
   id="stop3182" />
			<stop
   offset="1"
   style="stop-color:#787878"
   id="stop3184" />
		</linearGradient>
		<polygon
   fill="url(#SVGID_2_)"
   points="322,0 322,-182 0,-182 0,0   "
   id="polygon3186" />
	</g>
</pattern>
<pattern
   x="-123.5"
   y="403.5"
   width="322"
   height="182"
   patternUnits="userSpaceOnUse"
   id="Unnamed_Pattern_2"
   viewBox="0 -182 322 182"
   overflow="visible">
	<g
   id="g3189">
		<polygon
   fill="none"
   points="0,-182 322,-182 322,0 0,0   "
   id="polygon3191" />
		
			<linearGradient
   id="SVGID_3_"
   gradientUnits="userSpaceOnUse"
   x1="7745.8442"
   y1="-8448.6895"
   x2="7746.8442"
   y2="-8448.6895"
   gradientTransform="matrix(0 -182 -182 0 -1537500.375 1409743.625)">
			<stop
   offset="0"
   style="stop-color:#ABABAB"
   id="stop3194" />
			<stop
   offset="1"
   style="stop-color:#787878"
   id="stop3196" />
		</linearGradient>
		<polygon
   fill="url(#SVGID_3_)"
   points="322,0 322,-182 0,-182 0,0   "
   id="polygon3198" />
	</g>
</pattern>
<pattern
   x="-123.5"
   y="403.5"
   width="322"
   height="182"
   patternUnits="userSpaceOnUse"
   id="Unnamed_Pattern_3"
   viewBox="0 -182 322 182"
   overflow="visible">
	<g
   id="g3201">
		<polygon
   fill="none"
   points="0,-182 322,-182 322,0 0,0   "
   id="polygon3203" />
		
			<linearGradient
   id="SVGID_4_"
   gradientUnits="userSpaceOnUse"
   x1="7745.8442"
   y1="-8448.6895"
   x2="7746.8442"
   y2="-8448.6895"
   gradientTransform="matrix(0 -182 -182 0 -1537500.375 1409743.625)">
			<stop
   offset="0"
   style="stop-color:#ABABAB"
   id="stop3206" />
			<stop
   offset="1"
   style="stop-color:#787878"
   id="stop3208" />
		</linearGradient>
		<polygon
   fill="url(#SVGID_4_)"
   points="322,0 322,-182 0,-182 0,0   "
   id="polygon3210" />
	</g>
</pattern>
<pattern
   x="-123.5"
   y="403.5"
   width="322"
   height="182"
   patternUnits="userSpaceOnUse"
   id="Unnamed_Pattern_4"
   viewBox="0 -182 322 182"
   overflow="visible">
	<g
   id="g3213">
		<polygon
   fill="none"
   points="0,-182 322,-182 322,0 0,0   "
   id="polygon3215" />
		
			<linearGradient
   id="SVGID_5_"
   gradientUnits="userSpaceOnUse"
   x1="7745.8442"
   y1="-8448.6895"
   x2="7746.8442"
   y2="-8448.6895"
   gradientTransform="matrix(0 -182 -182 0 -1537500.375 1409743.625)">
			<stop
   offset="0"
   style="stop-color:#ABABAB"
   id="stop3218" />
			<stop
   offset="1"
   style="stop-color:#787878"
   id="stop3220" />
		</linearGradient>
		<polygon
   fill="url(#SVGID_5_)"
   points="322,0 322,-182 0,-182 0,0   "
   id="polygon3222" />
	</g>
</pattern>
<g
   id="g3224"
   transform="translate(-23.332031,-40.064453)">
	<path
   d="m 53.199,124.06 c -14.587,0 -25.282,-12.24 -25.282,-27.35 v -0.195 c 0,-15.11 10.603,-27.549 25.463,-27.549 9.151,0 14.863,3.362 19.389,8.885 l -8.424,9.873 C 61.26,84.172 58.178,81.898 53.288,81.898 46.4,81.898 41.509,88.513 41.509,96.32 v 0.195 c 0,8.097 4.802,14.606 12.324,14.606 4.618,0 7.791,-2.161 11.145,-5.624 l 8.061,8.893 c -4.715,5.619 -10.147,9.67 -19.84,9.67"
   id="path3226"
   inkscape:connector-curvature="0"
   style="fill:#69afd8" />
	<path
   d="m 123.247,123.876 c -15.037,0 -26.184,-12.149 -26.184,-27.35 V 96.33 c 0,-15.202 11.235,-27.549 26.368,-27.549 15.035,0 26.188,12.144 26.188,27.354 v 0.195 c -0.001,15.198 -11.248,27.546 -26.372,27.546 M 136.025,96.33 c 0,-7.802 -5.169,-14.616 -12.779,-14.616 -7.884,0 -12.586,6.615 -12.586,14.421 v 0.195 c 0,7.799 5.16,14.604 12.77,14.604 7.88,0 12.595,-6.604 12.595,-14.408 V 96.33 z"
   id="path3228"
   inkscape:connector-curvature="0"
   style="fill:#69afd8" />
	<path
   d="m 185.459,123.946 v -7.498 c -3.169,4.435 -7.253,8.488 -14.219,8.488 -10.43,0 -16.496,-7.5 -16.496,-19.646 V 71.026 h 13.776 v 29.524 c 0,7.113 3.081,10.757 8.337,10.757 5.248,0 8.602,-3.645 8.602,-10.757 V 71.026 h 13.769 v 52.92 h -13.769 z"
   id="path3230"
   inkscape:connector-curvature="0"
   style="fill:#69afd8" />
	<path
   d="m 242.488,123.792 v -7.604 c -3.346,4.945 -7.968,8.594 -15.133,8.594 -11.321,0 -22.106,-9.674 -22.106,-27.346 v -0.195 c 0,-17.676 10.601,-27.354 22.106,-27.354 7.342,0 11.868,3.652 15.133,7.901 V 51.724 h 13.769 v 72.068 h -13.769 z m 0.178,-26.551 c 0,-8.787 -5.344,-14.613 -11.771,-14.613 -6.435,0 -11.868,5.719 -11.868,14.613 v 0.195 c 0,8.785 5.433,14.606 11.868,14.606 6.427,0 11.771,-5.821 11.771,-14.606 v -0.195 z"
   id="path3232"
   inkscape:connector-curvature="0"
   style="fill:#69afd8" />
	<rect
   x="77.877998"
   y="48.307999"
   width="14.72"
   height="76.083"
   id="rect3234"
   style="fill:#69afd8" />
	<pattern
   id="SVGID_6_"
   xlink:href="#Unnamed_Pattern"
   patternTransform="matrix(1 0 0 -1 17.2363 -1377)">
	</pattern>
	<path
   d="m 294.264,86.414 c -2.354,-2.924 -5.457,-4.387 -9.31,-4.387 -1.356,0 -2.675,0.321 -3.959,0.963 -1.284,0.642 -1.926,1.749 -1.926,3.317 0,1.284 0.657,2.231 1.979,2.836 1.318,0.606 2.995,1.142 5.028,1.604 2.033,0.465 4.208,0.964 6.526,1.499 2.318,0.535 4.495,1.374 6.527,2.514 2.033,1.142 3.709,2.694 5.029,4.654 1.319,1.963 1.98,4.585 1.98,7.865 0,3.354 -0.732,6.117 -2.194,8.293 -1.463,2.176 -3.335,3.924 -5.617,5.242 -2.284,1.321 -4.853,2.247 -7.704,2.782 -2.854,0.535 -5.671,0.803 -8.453,0.803 -3.638,0 -7.312,-0.519 -11.021,-1.552 -3.71,-1.033 -6.848,-2.87 -9.416,-5.511 l 9.737,-10.807 c 1.498,1.856 3.156,3.264 4.975,4.227 1.818,0.963 3.941,1.444 6.367,1.444 1.854,0 3.531,-0.267 5.029,-0.803 1.498,-0.535 2.246,-1.515 2.246,-2.942 0,-1.354 -0.66,-2.37 -1.979,-3.05 -1.321,-0.677 -2.996,-1.246 -5.029,-1.711 -2.032,-0.464 -4.21,-0.963 -6.526,-1.498 -2.319,-0.535 -4.495,-1.338 -6.528,-2.408 -2.033,-1.07 -3.71,-2.584 -5.029,-4.547 -1.32,-1.961 -1.979,-4.583 -1.979,-7.865 0,-3.066 0.623,-5.706 1.872,-7.918 1.247,-2.21 2.889,-4.029 4.922,-5.457 2.033,-1.426 4.369,-2.478 7.009,-3.156 2.638,-0.678 5.312,-1.017 8.025,-1.017 3.424,0 6.883,0.5 10.379,1.498 3.494,1 6.455,2.782 8.881,5.35 l -9.841,9.738 z"
   id="path3237"
   inkscape:connector-curvature="0"
   style="fill:url(#SVGID_6_)" />
	<pattern
   id="SVGID_7_"
   xlink:href="#Unnamed_Pattern_1"
   patternTransform="matrix(1 0 0 -1 17.2363 -1377)">
	</pattern>
	<path
   d="m 349.795,83.953 h -14.123 v 17.334 c 0,1.428 0.07,2.729 0.213,3.906 0.143,1.176 0.463,2.193 0.963,3.049 0.5,0.856 1.266,1.517 2.301,1.979 1.033,0.465 2.408,0.695 4.119,0.695 0.857,0 1.98,-0.089 3.371,-0.267 1.391,-0.178 2.443,-0.59 3.156,-1.23 v 13.374 c -1.783,0.643 -3.637,1.07 -5.563,1.284 -1.926,0.214 -3.817,0.321 -5.671,0.321 -2.711,0 -5.207,-0.286 -7.49,-0.856 -2.283,-0.57 -4.279,-1.479 -5.992,-2.729 -1.711,-1.247 -3.049,-2.87 -4.012,-4.868 -0.963,-1.996 -1.445,-4.423 -1.445,-7.276 V 83.953 H 309.35 v -12.84 h 10.271 V 55.705 h 16.051 v 15.408 h 14.123 v 12.84 z"
   id="path3240"
   inkscape:connector-curvature="0"
   style="fill:url(#SVGID_7_)" />
	<pattern
   id="SVGID_8_"
   xlink:href="#Unnamed_Pattern_2"
   patternTransform="matrix(1 0 0 -1 17.2363 -1377)">
	</pattern>
	<path
   d="m 390.562,116.588 h -0.215 c -1.783,2.782 -4.156,4.78 -7.115,5.992 -2.961,1.212 -6.082,1.819 -9.361,1.819 -2.426,0 -4.762,-0.34 -7.01,-1.017 -2.246,-0.677 -4.227,-1.693 -5.938,-3.05 -1.713,-1.354 -3.068,-3.031 -4.066,-5.028 -1,-1.996 -1.498,-4.315 -1.498,-6.955 0,-2.996 0.551,-5.527 1.658,-7.598 1.105,-2.068 2.604,-3.78 4.494,-5.136 1.889,-1.354 4.047,-2.408 6.473,-3.156 2.426,-0.749 4.939,-1.301 7.545,-1.659 2.604,-0.356 5.205,-0.57 7.811,-0.642 2.604,-0.07 5.01,-0.107 7.223,-0.107 0,-2.852 -1.018,-5.118 -3.049,-6.794 -2.033,-1.676 -4.441,-2.515 -7.224,-2.515 -2.64,0 -5.048,0.553 -7.222,1.659 -2.178,1.106 -4.119,2.621 -5.832,4.547 l -8.561,-8.774 c 2.996,-2.782 6.489,-4.869 10.486,-6.26 3.994,-1.39 8.133,-2.086 12.412,-2.086 4.709,0 8.576,0.589 11.609,1.766 3.031,1.177 5.457,2.907 7.275,5.189 1.82,2.284 3.086,5.082 3.799,8.399 0.713,3.318 1.07,7.153 1.07,11.503 v 26.429 H 390.56 v -6.526 z m -3.958,-16.264 c -1.215,0 -2.729,0.054 -4.547,0.161 -1.82,0.107 -3.568,0.411 -5.244,0.909 -1.676,0.5 -3.104,1.249 -4.279,2.247 -1.178,1 -1.766,2.391 -1.766,4.173 0,1.926 0.818,3.354 2.461,4.279 1.641,0.928 3.352,1.392 5.137,1.392 1.566,0 3.084,-0.214 4.547,-0.642 1.461,-0.429 2.764,-1.033 3.904,-1.819 1.141,-0.784 2.051,-1.782 2.729,-2.996 0.678,-1.212 1.018,-2.638 1.018,-4.28 v -3.424 h -3.96 z"
   id="path3243"
   inkscape:connector-curvature="0"
   style="fill:url(#SVGID_8_)" />
	<pattern
   id="SVGID_9_"
   xlink:href="#Unnamed_Pattern_3"
   patternTransform="matrix(1 0 0 -1 17.2363 -1377)">
	</pattern>
	<path
   d="m 450.588,87.912 c -0.785,-1.14 -1.891,-2.086 -3.316,-2.835 -1.428,-0.749 -2.961,-1.124 -4.602,-1.124 -4.066,0 -7.223,1.214 -9.469,3.638 -2.248,2.426 -3.371,5.601 -3.371,9.523 0,3.924 1.123,7.099 3.371,9.522 2.246,2.426 5.402,3.639 9.469,3.639 1.783,0 3.318,-0.392 4.602,-1.178 1.283,-0.783 2.389,-1.711 3.316,-2.781 l 10.594,11.128 c -2.498,2.568 -5.441,4.37 -8.828,5.403 -3.389,1.033 -6.617,1.552 -9.684,1.552 -3.996,0 -7.758,-0.643 -11.287,-1.925 -3.531,-1.285 -6.6,-3.121 -9.203,-5.512 -2.605,-2.389 -4.654,-5.26 -6.152,-8.612 -1.498,-3.354 -2.246,-7.099 -2.246,-11.236 0,-4.136 0.748,-7.881 2.246,-11.235 1.498,-3.352 3.547,-6.222 6.152,-8.613 2.604,-2.39 5.672,-4.227 9.203,-5.511 3.529,-1.284 7.291,-1.926 11.287,-1.926 3.066,0 6.295,0.519 9.684,1.552 3.387,1.034 6.33,2.835 8.828,5.403 l -10.594,11.128 z"
   id="path3246"
   inkscape:connector-curvature="0"
   style="fill:url(#SVGID_9_)" />
	<pattern
   id="SVGID_10_"
   xlink:href="#Unnamed_Pattern_4"
   patternTransform="matrix(1 0 0 -1 17.2363 -1377)">
	</pattern>
	<polygon
   points="500.772,123.115 483.223,96.793 483.008,96.793 483.008,123.115 466.959,123.115 466.959,42.223 483.008,42.223 483.008,91.657 500.772,71.113 520.459,71.113 499.807,94.546 520.994,123.115 "
   id="polygon3249"
   style="fill:url(#SVGID_10_)" />
</g>
<rect
   x="-123.5"
   y="-295.5"
   width="800"
   height="600"
   id="rect3251"
   style="fill:none" />


</svg>