<?xml version="1.0" encoding="UTF-8" standalone="no"?>
<!-- Created with Inkscape (http://www.inkscape.org/) -->

<svg
   xmlns:svg="http://www.w3.org/2000/svg"
   xmlns="http://www.w3.org/2000/svg"
   version="1.0"
   width="32"
   height="32"
   id="svg2">
  <defs
     id="defs15" />
  <circle
     cx="16"
     cy="16"
     r="14"
     id="circle"
     style="fill:#336699" />
  <g
     id="text2820"
     style="font-size:10px;font-style:normal;font-variant:normal;font-weight:normal;font-stretch:normal;text-align:center;text-anchor:middle;fill:#ffffff;fill-opacity:1;stroke:none;font-family:Droid Sans;-inkscape-font-specification:Droid Sans">
    <path
       d="m 15.257917,22.008438 -8.143066,0 0,-1.784668 2.8554687,-3.07959 c 0.3596963,-0.387364 0.6861933,-0.744297 0.9794923,-1.0708 0.293289,-0.326492 0.54508,-0.644688 0.755371,-0.95459 0.210281,-0.309889 0.37353,-0.625318 0.489746,-0.946289 0.116205,-0.320956 0.174311,-0.666821 0.174317,-1.037598 -6e-6,-0.409496 -0.124518,-0.727692 -0.373536,-0.95459 -0.243495,-0.226878 -0.572759,-0.340322 -0.987793,-0.340332 -0.437178,10e-6 -0.857751,0.10792 -1.2617183,0.323731 C 9.3422244,12.379541 8.918885,12.68667 8.4761791,13.085098 L 7.0816479,11.433243 C 7.3306704,11.206366 7.5907613,10.990545 7.8619213,10.785782 8.1330785,10.575507 8.4319063,10.390123 8.7584057,10.22963 9.0849004,10.06916 9.4446006,9.9418812 9.8375072,9.8477936 10.230407,9.7481965 10.670348,9.6983918 11.157331,9.6983795 c 0.58105,1.23e-5 1.101232,0.080253 1.560547,0.2407227 0.464837,0.1604938 0.860508,0.3901488 1.187012,0.6889648 0.32649,0.293305 0.575513,0.650239 0.74707,1.070801 0.177075,0.420583 0.265617,0.893727 0.265625,1.419433 -8e-6,0.47592 -0.08302,0.932463 -0.249023,1.369629 -0.166024,0.431648 -0.392912,0.857754 -0.680664,1.278321 -0.287768,0.415044 -0.622566,0.830083 -1.004395,1.245117 -0.376308,0.40951 -0.780279,0.827315 -1.211914,1.253418 l -1.460937,1.469238 0,0.116211 4.947265,0 0,2.158203"
       id="path2818"
       style="font-size:17px;font-weight:bold;fill:#ffffff;-inkscape-font-specification:Bitstream Vera Sans Bold" />
    <path
       d="m 24.554792,15.052383 c -8e-6,0.581061 -0.03321,1.162116 -0.09961,1.743164 -0.06088,0.575526 -0.174325,1.126144 -0.340332,1.651856 -0.16049,0.525719 -0.381844,1.018232 -0.664063,1.477539 -0.2767,0.453778 -0.630866,0.846681 -1.0625,1.178711 -0.426112,0.332032 -0.94076,0.59489 -1.543945,0.788574 -0.597661,0.188151 -1.300459,0.282227 -2.108398,0.282227 -0.116214,0 -0.243493,-0.0028 -0.381836,-0.0083 -0.138349,-0.0055 -0.279462,-0.01384 -0.42334,-0.0249 -0.138348,-0.0055 -0.273928,-0.0166 -0.406738,-0.0332 -0.132814,-0.01107 -0.249025,-0.02767 -0.348633,-0.0498 l 0,-2.058594 c 0.204751,0.05534 0.423338,0.09961 0.655762,0.132813 0.237953,0.02767 0.478675,0.04151 0.722168,0.0415 0.747066,2e-6 1.361324,-0.09131 1.842773,-0.273925 0.48144,-0.188149 0.863276,-0.44824 1.145508,-0.780274 0.28222,-0.337562 0.481439,-0.738766 0.597656,-1.203613 0.121738,-0.464839 0.196445,-0.97672 0.224121,-1.535645 l -0.10791,0 c -0.110683,0.199225 -0.243496,0.384609 -0.398438,0.556153 -0.154953,0.171554 -0.33757,0.320968 -0.547851,0.448242 -0.210292,0.127283 -0.448247,0.226892 -0.713867,0.298828 -0.26563,0.07194 -0.561691,0.107914 -0.888184,0.10791 -0.525719,4e-6 -0.998863,-0.08577 -1.419433,-0.257324 -0.420575,-0.171545 -0.777509,-0.420568 -1.070801,-0.74707 -0.287762,-0.326492 -0.509116,-0.727696 -0.664063,-1.203614 -0.154948,-0.475904 -0.232422,-1.020988 -0.232422,-1.635253 0,-0.65852 0.09131,-1.247875 0.273926,-1.768067 0.18815,-0.520172 0.453775,-0.960113 0.796875,-1.319824 0.343097,-0.365223 0.758136,-0.644682 1.245117,-0.838379 0.49251,-0.1936727 1.043128,-0.2905151 1.651856,-0.2905274 0.597651,1.23e-5 1.15657,0.1079224 1.676758,0.3237304 0.520175,0.210298 0.971184,0.534028 1.353027,0.971192 0.381828,0.437185 0.683423,0.990569 0.904785,1.660156 0.221346,0.669605 0.332023,1.458178 0.332031,2.365722 m -4.216796,-3.262207 c -0.226893,1.1e-5 -0.434412,0.04151 -0.622559,0.124512 -0.188155,0.08302 -0.351403,0.213063 -0.489746,0.390137 -0.132816,0.171559 -0.237959,0.392913 -0.31543,0.664062 -0.07194,0.265634 -0.107913,0.581063 -0.10791,0.946289 -3e-6,0.586596 0.124509,1.05144 0.373535,1.394532 0.24902,0.343105 0.625322,0.514654 1.128906,0.514648 0.254553,6e-6 0.486975,-0.0498 0.697266,-0.149414 0.210281,-0.0996 0.390131,-0.229648 0.539551,-0.390137 0.149408,-0.160475 0.262852,-0.340325 0.340332,-0.53955 0.083,-0.199212 0.124505,-0.401197 0.124512,-0.605958 -7e-6,-0.282218 -0.03598,-0.561677 -0.107911,-0.838378 -0.06641,-0.282218 -0.171555,-0.534008 -0.315429,-0.755372 -0.138352,-0.226878 -0.312669,-0.409495 -0.52295,-0.547851 -0.204757,-0.138336 -0.44548,-0.207509 -0.722167,-0.20752"
       id="path2820"
       style="font-size:17px;font-weight:bold;fill:#ffffff;-inkscape-font-specification:Bitstream Vera Sans Bold" />
  </g>
</svg>
