<?xml version="1.0" encoding="UTF-8" standalone="no"?>
<!-- Created with Inkscape (http://www.inkscape.org/) -->

<svg
   xmlns:svg="http://www.w3.org/2000/svg"
   xmlns="http://www.w3.org/2000/svg"
   version="1.0"
   width="32"
   height="32"
   id="svg2">
  <defs
     id="defs15" />
  <circle
     cx="16"
     cy="16"
     r="14"
     id="circle"
     style="fill:#336699" />
  <g
     id="text2820"
     style="font-size:10px;font-style:normal;font-variant:normal;font-weight:normal;font-stretch:normal;text-align:start;text-anchor:start;fill:#ffffff;fill-opacity:1;stroke:none;font-family:Droid Sans;-inkscape-font-specification:Droid Sans">
    <path
       d="m 11.702589,16.853653 c -10e-7,-0.581049 0.03044,-1.159336 0.09131,-1.734863 0.0664,-0.575514 0.179849,-1.126132 0.340332,-1.651856 0.166014,-0.531241 0.387368,-1.023753 0.664062,-1.477539 0.282225,-0.453765 0.636391,-0.846669 1.0625,-1.178711 0.431638,-0.337553 0.946285,-0.600411 1.543945,-0.788574 0.603186,-0.1936727 1.305984,-0.2905151 2.108399,-0.2905274 0.116204,1.23e-5 0.243483,0.00278 0.381836,0.0083 0.138339,0.00555 0.276685,0.013847 0.415039,0.024902 0.143873,0.00555 0.282219,0.016614 0.415039,0.033203 0.132805,0.016614 0.251782,0.035982 0.356934,0.058105 l 0,2.0502924 c -0.210295,-0.04979 -0.434416,-0.08853 -0.672364,-0.116211 -0.232429,-0.03319 -0.467617,-0.04979 -0.705566,-0.0498 -0.747076,1e-5 -1.361334,0.09408 -1.842774,0.282226 -0.481449,0.182627 -0.863285,0.439951 -1.145507,0.771973 -0.28223,0.33204 -0.484216,0.730477 -0.605957,1.195312 -0.116214,0.464852 -0.188154,0.9795 -0.215821,1.543946 l 0.09961,0 c 0.110674,-0.199212 0.243486,-0.384596 0.398437,-0.556153 0.160478,-0.177076 0.345862,-0.32649 0.556153,-0.448242 0.210282,-0.127271 0.44547,-0.22688 0.705566,-0.298828 0.26562,-0.07193 0.561681,-0.107902 0.888184,-0.10791 0.52571,8e-6 0.998854,0.08578 1.419433,0.257324 0.420566,0.171557 0.774732,0.42058 1.0625,0.74707 0.293286,0.326504 0.517407,0.727708 0.672363,1.203614 0.15494,0.475916 0.232413,1.021 0.232422,1.635254 -9e-6,0.658532 -0.09408,1.247887 -0.282226,1.768066 -0.182626,0.520184 -0.445484,0.962892 -0.788575,1.328125 -0.343106,0.359701 -0.758145,0.636394 -1.245117,0.830078 -0.486985,0.188151 -1.034836,0.282227 -1.643554,0.282227 -0.597661,0 -1.15658,-0.105144 -1.676758,-0.31543 -0.520185,-0.21582 -0.973961,-0.542317 -1.361328,-0.979492 -0.381838,-0.437173 -0.683433,-0.987791 -0.904785,-1.651856 -0.215822,-0.669593 -0.323732,-1.460933 -0.323731,-2.374023 m 4.216797,3.270508 c 0.226883,2e-6 0.431635,-0.0415 0.614258,-0.124512 0.188145,-0.08854 0.348627,-0.218585 0.481445,-0.390137 0.13834,-0.17708 0.243483,-0.398434 0.31543,-0.664062 0.07747,-0.265622 0.116204,-0.581051 0.116211,-0.946289 -7e-6,-0.592118 -0.124518,-1.056961 -0.373535,-1.394531 -0.243496,-0.343094 -0.617031,-0.514643 -1.120606,-0.514649 -0.254562,6e-6 -0.486984,0.04981 -0.697266,0.149414 -0.21029,0.09962 -0.39014,0.229661 -0.53955,0.390137 -0.149418,0.160487 -0.265629,0.340337 -0.348633,0.539551 -0.07748,0.199223 -0.116214,0.401209 -0.116211,0.605957 -3e-6,0.28223 0.0332,0.564456 0.09961,0.846679 0.07194,0.276696 0.17708,0.528486 0.31543,0.755371 0.143876,0.221357 0.318193,0.401207 0.522949,0.539551 0.210282,0.138349 0.453772,0.207522 0.730469,0.20752"
       id="path2846"
       style="font-size:17px;font-weight:bold;fill:#ffffff;-inkscape-font-specification:Bitstream Vera Sans Bold" />
  </g>
</svg>
