<?xml version="1.0" encoding="UTF-8" standalone="no"?>
<!-- Created with Inkscape (http://www.inkscape.org/) -->

<svg
   xmlns:svg="http://www.w3.org/2000/svg"
   xmlns="http://www.w3.org/2000/svg"
   version="1.0"
   width="32"
   height="32"
   id="svg2">
  <defs
     id="defs15" />
  <circle
     cx="16"
     cy="16"
     r="14"
     id="circle"
     style="fill:#336699" />
  <g
     id="text2820"
     style="font-size:10px;font-style:normal;font-variant:normal;font-weight:normal;font-stretch:normal;text-align:start;text-anchor:start;fill:#ffffff;fill-opacity:1;stroke:none;font-family:Droid Sans;-inkscape-font-specification:Droid Sans">
    <path
       d="m 19.829054,15.052383 c -9e-6,0.581061 -0.03321,1.162116 -0.09961,1.743164 -0.06088,0.575526 -0.174325,1.126144 -0.340333,1.651856 -0.160489,0.525719 -0.381843,1.018232 -0.664062,1.477539 -0.2767,0.453778 -0.630866,0.846681 -1.0625,1.178711 -0.426113,0.332032 -0.940761,0.59489 -1.543945,0.788574 -0.597661,0.188151 -1.30046,0.282227 -2.108399,0.282227 -0.116214,0 -0.243492,-0.0028 -0.381836,-0.0083 -0.138348,-0.0055 -0.279462,-0.01384 -0.42334,-0.0249 -0.138348,-0.0055 -0.273927,-0.0166 -0.406738,-0.0332 -0.132814,-0.01107 -0.249025,-0.02767 -0.348633,-0.0498 l 0,-2.058594 c 0.204751,0.05534 0.423338,0.09961 0.655762,0.132813 0.237954,0.02767 0.478676,0.04151 0.722168,0.0415 0.747067,2e-6 1.361324,-0.09131 1.842773,-0.273925 0.481441,-0.188149 0.863276,-0.44824 1.145508,-0.780274 0.282221,-0.337562 0.481439,-0.738766 0.597657,-1.203613 0.121738,-0.464839 0.196445,-0.97672 0.224121,-1.535645 l -0.107911,0 c -0.110683,0.199225 -0.243495,0.384609 -0.398437,0.556153 -0.154954,0.171554 -0.337571,0.320968 -0.547852,0.448242 -0.210291,0.127283 -0.448247,0.226892 -0.713867,0.298828 -0.265629,0.07194 -0.56169,0.107914 -0.888183,0.10791 -0.52572,4e-6 -0.998864,-0.08577 -1.419434,-0.257324 -0.420575,-0.171545 -0.777508,-0.420568 -1.070801,-0.74707 -0.287761,-0.326492 -0.509115,-0.727696 -0.664062,-1.203614 -0.154949,-0.475904 -0.232423,-1.020988 -0.232422,-1.635253 -10e-7,-0.65852 0.09131,-1.247875 0.273926,-1.768067 0.18815,-0.520172 0.453774,-0.960113 0.796875,-1.319824 0.343097,-0.365223 0.758135,-0.644682 1.245117,-0.838379 0.49251,-0.1936727 1.043127,-0.2905151 1.651855,-0.2905274 0.597651,1.23e-5 1.15657,0.1079224 1.676758,0.3237304 0.520176,0.210298 0.971184,0.534028 1.353027,0.971192 0.381829,0.437185 0.683423,0.990569 0.904786,1.660156 0.221345,0.669605 0.332022,1.458178 0.332031,2.365722 m -4.216797,-3.262207 c -0.226892,1.1e-5 -0.434412,0.04151 -0.622559,0.124512 -0.188154,0.08302 -0.351403,0.213063 -0.489746,0.390137 -0.132815,0.171559 -0.237959,0.392913 -0.315429,0.664062 -0.07194,0.265634 -0.107914,0.581063 -0.107911,0.946289 -3e-6,0.586596 0.124509,1.05144 0.373536,1.394532 0.249019,0.343105 0.625321,0.514654 1.128906,0.514648 0.254552,6e-6 0.486974,-0.0498 0.697266,-0.149414 0.210281,-0.0996 0.390131,-0.229648 0.53955,-0.390137 0.149408,-0.160475 0.262852,-0.340325 0.340332,-0.53955 0.083,-0.199212 0.124506,-0.401197 0.124512,-0.605958 -6e-6,-0.282218 -0.03598,-0.561677 -0.10791,-0.838378 -0.06641,-0.282218 -0.171556,-0.534008 -0.31543,-0.755372 -0.138352,-0.226878 -0.312668,-0.409495 -0.522949,-0.547851 -0.204758,-0.138336 -0.44548,-0.207509 -0.722168,-0.20752"
       id="path2818"
       style="font-size:17px;font-weight:bold;fill:#ffffff;-inkscape-font-specification:Bitstream Vera Sans Bold" />
  </g>
</svg>
