<?xml version="1.0" encoding="UTF-8" standalone="no"?>
<svg
   xmlns:dc="http://purl.org/dc/elements/1.1/"
   xmlns:cc="http://creativecommons.org/ns#"
   xmlns:rdf="http://www.w3.org/1999/02/22-rdf-syntax-ns#"
   xmlns:svg="http://www.w3.org/2000/svg"
   xmlns="http://www.w3.org/2000/svg"
   xmlns:sodipodi="http://sodipodi.sourceforge.net/DTD/sodipodi-0.dtd"
   xmlns:inkscape="http://www.inkscape.org/namespaces/inkscape"
   viewBox="0 0 449.99999 362.9483"
   height="362.9483"
   width="450"
   xml:space="preserve"
   id="svg2"
   version="1.1"
   sodipodi:docname="logo.svg"
   inkscape:version="0.92.4 (5da689c313, 2019-01-14)"><sodipodi:namedview
     pagecolor="#ffffff"
     bordercolor="#666666"
     borderopacity="1"
     objecttolerance="10"
     gridtolerance="10"
     guidetolerance="10"
     inkscape:pageopacity="0"
     inkscape:pageshadow="2"
     inkscape:window-width="1866"
     inkscape:window-height="1017"
     id="namedview93"
     showgrid="false"
     inkscape:zoom="0.87885424"
     inkscape:cx="-52.731547"
     inkscape:cy="181.47415"
     inkscape:window-x="54"
     inkscape:window-y="26"
     inkscape:window-maximized="1"
     inkscape:current-layer="layer2" /><metadata
     id="metadata8"><rdf:RDF><cc:Work
         rdf:about=""><dc:format>image/svg+xml</dc:format><dc:type
           rdf:resource="http://purl.org/dc/dcmitype/StillImage" /><dc:title></dc:title></cc:Work></rdf:RDF></metadata><defs
     id="defs6"><marker
       inkscape:stockid="Arrow1Mend"
       orient="auto"
       refY="0"
       refX="0"
       id="Arrow1Mend"
       style="overflow:visible"
       inkscape:isstock="true"><path
         id="path913"
         d="M 0,0 5,-5 -12.5,0 5,5 Z"
         style="fill:#5affff;fill-opacity:1;fill-rule:evenodd;stroke:#7787ff;stroke-width:1.00000003pt;stroke-opacity:1"
         transform="matrix(-0.4,0,0,-0.4,-4,0)"
         inkscape:connector-curvature="0" /></marker><clipPath
       id="clipPath18"
       clipPathUnits="userSpaceOnUse"><path
         id="path16"
         d="M 0,2000 H 2000 V 0 H 0 Z"
         inkscape:connector-curvature="0" /></clipPath><clipPath
       id="clipPath90"
       clipPathUnits="userSpaceOnUse"><path
         id="path88"
         d="m 1317.766,1308.723 v -15.945 h -0.107 c -1.215,2.153 -3.975,4.082 -8.06,4.082 v 0 c -6.512,0 -12.028,-5.46 -11.973,-14.345 v 0 c 0,-8.111 4.967,-13.573 11.419,-13.573 v 0 c 4.36,0 7.62,2.261 9.107,5.244 v 0 h 0.109 l 0.218,-4.637 h 4.368 c -0.17,1.822 -0.227,4.523 -0.227,6.898 v 0 32.276 z m -15.23,-25.985 c 0,5.904 2.981,10.317 8,10.317 v 0 c 3.645,0 6.291,-2.535 7.01,-5.628 v 0 c 0.164,-0.607 0.22,-1.435 0.22,-2.042 v 0 -4.632 c 0,-0.776 -0.056,-1.437 -0.22,-2.099 v 0 c -0.881,-3.64 -3.862,-5.795 -7.117,-5.795 v 0 c -5.245,0 -7.893,4.469 -7.893,9.879 m -76.687,-13.189 h 4.852 v 39.174 h -4.852 z m 296.659,34.21 c 0,-1.653 1.214,-2.976 2.923,-2.976 v 0 c 1.933,0 3.146,1.323 3.088,2.976 v 0 c 0,1.713 -1.155,3.036 -2.977,3.036 v 0 c -1.767,0 -3.034,-1.323 -3.034,-3.036 m -16.55,-1.103 v -6.4 h -4.142 v -3.699 h 4.142 v -14.565 c 0,-3.146 0.494,-5.516 1.873,-6.95 v 0 c 1.16,-1.325 2.978,-2.045 5.242,-2.045 v 0 c 1.877,0 3.366,0.275 4.307,0.662 v 0 l -0.223,3.642 c -0.609,-0.163 -1.543,-0.33 -2.814,-0.33 v 0 c -2.703,0 -3.641,1.875 -3.641,5.186 v 0 14.4 h 6.954 v 3.699 h -6.954 v 7.668 z m 58.758,-19.974 c 0,-7.397 4.744,-13.023 11.363,-13.023 v 0 c 4.141,0 7.007,1.986 8.5,4.472 v 0 h 0.111 v -2.982 c 0,-6.732 -3.642,-9.325 -8.611,-9.325 v 0 c -3.31,0 -6.066,0.994 -7.836,2.097 v 0 l -1.212,-3.698 c 2.153,-1.436 5.683,-2.207 8.886,-2.207 v 0 c 3.363,0 7.117,0.771 9.711,3.199 v 0 c 2.592,2.318 3.804,6.071 3.804,12.196 v 0 15.506 c 0,3.256 0.112,5.405 0.224,7.339 v 0 h -4.251 l -0.221,-4.03 h -0.111 c -1.158,2.206 -3.693,4.634 -8.332,4.634 v 0 c -6.123,0 -12.025,-5.128 -12.025,-14.178 m 4.91,0.275 c 0,6.179 3.308,10.098 7.943,10.098 v 0 c 3.534,0 5.906,-2.314 6.787,-5.133 v 0 c 0.223,-0.66 0.276,-1.377 0.276,-2.206 v 0 -4.802 c 0,-0.825 -0.11,-1.766 -0.385,-2.592 v 0 c -1.051,-3.088 -3.75,-4.963 -6.734,-4.963 v 0 c -5.241,0 -7.887,4.354 -7.887,9.598 m -29.133,8.884 h -0.109 l -0.278,4.415 h -4.302 c 0.166,-2.208 0.221,-4.471 0.221,-7.23 v 0 -19.477 h 4.855 v 16.058 c 0,0.826 0.109,1.655 0.329,2.263 v 0 c 0.829,2.703 3.313,4.965 6.511,4.965 v 0 c 4.582,0 6.183,-3.588 6.183,-7.892 v 0 -15.394 h 4.856 v 15.949 c 0,9.156 -5.741,11.362 -9.436,11.362 v 0 c -4.414,0 -7.506,-2.479 -8.83,-5.019 m -92.963,-0.167 h -0.113 l -0.217,4.582 h -4.361 c 0.109,-2.538 0.22,-5.297 0.22,-8.717 v 0 -28.915 h 4.803 v 14.514 h 0.109 c 1.599,-2.65 4.69,-4.196 8.224,-4.196 v 0 c 6.289,0 12.136,4.747 12.136,14.344 v 0 c 0,8.114 -4.855,13.574 -11.308,13.574 v 0 c -4.362,0 -7.506,-1.929 -9.493,-5.186 m 0.551,-13.24 c -0.11,0.603 -0.219,1.268 -0.219,1.986 v 0 4.58 c 0,0.662 0.164,1.377 0.331,1.986 v 0 c 0.935,3.642 4.026,6.013 7.339,6.013 v 0 c 5.127,0 7.944,-4.578 7.944,-9.931 v 0 c 0,-6.125 -2.981,-10.319 -8.109,-10.319 v 0 c -3.479,0 -6.403,2.319 -7.286,5.685 m -27.584,16.55 c -1.103,-0.825 -2.15,-1.985 -2.981,-3.473 v 0 h -0.11 c -1.157,3.143 -3.915,5.349 -7.56,5.349 v 0 c -4.411,0 -6.895,-2.369 -8.388,-4.908 v 0 h -0.164 l -0.219,4.304 h -4.25 c 0.166,-2.208 0.221,-4.471 0.221,-7.23 v 0 -19.477 h 4.744 v 16.113 c 0,0.829 0.109,1.657 0.388,2.371 v 0 c 0.773,2.427 2.979,4.856 6.016,4.856 v 0 c 3.694,0 5.571,-3.09 5.571,-7.336 v 0 -16.004 h 4.744 v 16.498 c 0,0.884 0.17,1.767 0.387,2.427 v 0 c 0.825,2.375 2.978,4.415 5.737,4.415 v 0 c 3.919,0 5.797,-3.09 5.797,-8.219 v 0 -15.121 h 4.747 v 15.727 c 0,9.269 -5.244,11.584 -8.778,11.584 v 0 c -2.535,0 -4.303,-0.66 -5.902,-1.876 m -55.674,-12.302 c 0,-8.442 5.576,-13.74 12.805,-13.74 v 0 c 6.453,0 13.297,4.305 13.297,14.179 v 0 c 0,8.168 -5.19,13.739 -12.856,13.739 v 0 c -7.394,0 -13.246,-5.24 -13.246,-14.178 m 4.914,0.164 c 0,5.076 2.479,10.373 8.221,10.373 v 0 c 5.738,0 8,-5.737 8,-10.262 v 0 c 0,-6.014 -3.474,-10.373 -8.109,-10.373 v 0 c -4.744,0 -8.112,4.413 -8.112,10.262 m -132.799,-0.164 c 0,-8.442 5.57,-13.74 12.799,-13.74 v 0 c 6.457,0 13.297,4.305 13.297,14.179 v 0 c 0,8.168 -5.183,13.739 -12.856,13.739 v 0 c -7.394,0 -13.24,-5.24 -13.24,-14.178 m 4.909,0.164 c 0,5.076 2.482,10.373 8.222,10.373 v 0 c 5.739,0 8,-5.737 8,-10.262 v 0 c 0,-6.014 -3.474,-10.373 -8.111,-10.373 v 0 c -4.744,0 -8.111,4.413 -8.111,10.262 m -81.985,-0.387 c 0,-8.055 4.908,-13.462 13.132,-13.462 v 0 c 4.248,0 7.172,0.884 8.885,1.657 v 0 l -0.831,3.477 c -1.819,-0.772 -3.915,-1.382 -7.392,-1.382 v 0 c -4.857,0 -9.048,2.705 -9.159,9.269 v 0 h 18.759 c 0.058,0.497 0.167,1.268 0.167,2.263 v 0 c 0,4.913 -2.317,12.579 -11.035,12.579 v 0 c -7.78,0 -12.526,-6.34 -12.526,-14.401 m 12.138,10.929 c 5.465,0 6.787,-4.803 6.732,-7.89 v 0 h -14.182 c 0.388,3.365 2.539,7.89 7.45,7.89 m -47.668,-2.374 h -0.222 l -0.167,5.242 h -4.246 c 0.163,-2.485 0.221,-5.185 0.221,-8.334 v 0 -18.373 h 4.797 v 14.234 c 0,0.83 0.111,1.602 0.223,2.264 v 0 c 0.66,3.641 3.089,6.235 6.514,6.235 v 0 c 0.659,0 1.157,-0.056 1.653,-0.166 v 0 4.58 c -0.442,0.111 -0.829,0.164 -1.379,0.164 v 0 c -3.258,0 -6.18,-2.26 -7.394,-5.846 m -67.036,-8.332 c 0,-8.442 5.572,-13.74 12.802,-13.74 v 0 c 6.454,0 13.298,4.305 13.298,14.179 v 0 c 0,8.168 -5.19,13.739 -12.856,13.739 v 0 c -7.396,0 -13.244,-5.24 -13.244,-14.178 m 4.91,0.164 c 0,5.076 2.482,10.373 8.223,10.373 v 0 c 5.738,0 7.998,-5.737 7.998,-10.262 v 0 c 0,-6.014 -3.473,-10.373 -8.108,-10.373 v 0 c -4.745,0 -8.113,4.413 -8.113,10.262 m -25.931,6.18 c 0,-3.2 2.261,-5.846 7.062,-7.56 v 0 c 3.59,-1.324 4.967,-2.591 4.967,-4.909 v 0 c 0,-2.205 -1.656,-3.973 -5.187,-3.973 v 0 c -2.428,0 -4.966,0.993 -6.399,1.931 v 0 l -1.215,-3.694 c 1.875,-1.104 4.578,-1.824 7.502,-1.824 v 0 c 6.348,0 9.99,3.31 9.99,8 v 0 c 0,3.972 -2.375,6.289 -7.009,8.058 v 0 c -3.476,1.322 -5.075,2.314 -5.075,4.524 v 0 c 0,1.986 1.599,3.64 4.469,3.64 v 0 c 2.482,0 4.415,-0.883 5.461,-1.545 v 0 l 1.215,3.532 c -1.489,0.882 -3.864,1.654 -6.565,1.654 v 0 c -5.742,0 -9.216,-3.53 -9.216,-7.834 m -36.745,2.815 h -0.11 l -0.274,4.415 h -4.303 c 0.164,-2.208 0.22,-4.471 0.22,-7.23 v 0 -19.477 h 4.854 v 16.058 c 0,0.826 0.113,1.655 0.332,2.263 v 0 c 0.826,2.703 3.31,4.965 6.512,4.965 v 0 c 4.58,0 6.177,-3.588 6.177,-7.892 v 0 -15.394 h 4.856 v 15.949 c 0,9.156 -5.739,11.362 -9.431,11.362 v 0 c -4.418,0 -7.508,-2.479 -8.833,-5.019 m -34.039,-9.382 c 0,-8.055 4.91,-13.462 13.131,-13.462 v 0 c 4.249,0 7.172,0.884 8.883,1.657 v 0 l -0.829,3.477 c -1.819,-0.772 -3.916,-1.382 -7.394,-1.382 v 0 c -4.853,0 -9.047,2.705 -9.157,9.269 v 0 h 18.763 c 0.053,0.497 0.162,1.268 0.162,2.263 v 0 c 0,4.913 -2.317,12.579 -11.034,12.579 v 0 c -7.781,0 -12.525,-6.34 -12.525,-14.401 m 12.138,10.929 c 5.463,0 6.788,-4.803 6.732,-7.89 v 0 h -14.183 c 0.389,3.365 2.538,7.89 7.451,7.89 m -37.13,-1.714 h -0.111 l -0.219,4.582 h -4.362 c 0.111,-2.538 0.221,-5.297 0.221,-8.717 v 0 -28.915 h 4.801 v 14.514 h 0.111 c 1.599,-2.65 4.688,-4.196 8.219,-4.196 v 0 c 6.294,0 12.141,4.747 12.141,14.344 v 0 c 0,8.114 -4.854,13.574 -11.31,13.574 v 0 c -4.362,0 -7.503,-1.929 -9.491,-5.186 m 0.552,-13.24 c -0.111,0.603 -0.222,1.268 -0.222,1.986 v 0 4.58 c 0,0.662 0.165,1.377 0.331,1.986 v 0 c 0.937,3.642 4.027,6.013 7.337,6.013 v 0 c 5.133,0 7.949,-4.578 7.949,-9.931 v 0 c 0,-6.125 -2.98,-10.319 -8.113,-10.319 v 0 c -3.477,0 -6.399,2.319 -7.282,5.685 m -37.243,4.248 c 0,-8.442 5.575,-13.74 12.801,-13.74 v 0 c 6.455,0 13.297,4.305 13.297,14.179 v 0 c 0,8.168 -5.187,13.739 -12.854,13.739 v 0 c -7.397,0 -13.244,-5.24 -13.244,-14.178 m 4.912,0.164 c 0,5.076 2.481,10.373 8.223,10.373 v 0 c 5.737,0 7.997,-5.737 7.997,-10.262 v 0 c 0,-6.014 -3.474,-10.373 -8.109,-10.373 v 0 c -4.747,0 -8.111,4.413 -8.111,10.262 m 431.72,-0.222 c 0,-8.162 5.243,-13.627 13.295,-13.627 v 0 c 3.59,0 6.401,0.884 7.672,1.546 v 0 l -0.83,3.643 c -1.377,-0.609 -3.199,-1.327 -5.959,-1.327 v 0 c -5.295,0 -9.267,3.807 -9.267,9.987 v 0 c 0,5.575 3.31,10.098 9.433,10.098 v 0 c 2.651,0 4.469,-0.608 5.631,-1.27 v 0 l 1.103,3.752 c -1.325,0.662 -3.863,1.381 -6.734,1.381 v 0 c -8.721,0 -14.344,-5.958 -14.344,-14.183 m -141.24,0 c 0,-8.162 5.238,-13.627 13.297,-13.627 v 0 c 3.586,0 6.4,0.884 7.668,1.546 v 0 l -0.826,3.643 c -1.381,-0.609 -3.2,-1.327 -5.961,-1.327 v 0 c -5.293,0 -9.271,3.807 -9.271,9.987 v 0 c 0,5.575 3.316,10.098 9.437,10.098 v 0 c 2.649,0 4.471,-0.608 5.628,-1.27 v 0 l 1.106,3.752 c -1.328,0.662 -3.867,1.381 -6.734,1.381 v 0 c -8.717,0 -14.344,-5.958 -14.344,-14.183 m -63.723,0 c 0,-8.162 5.239,-13.627 13.297,-13.627 v 0 c 3.584,0 6.401,0.884 7.668,1.546 v 0 l -0.827,3.643 c -1.379,-0.609 -3.199,-1.327 -5.958,-1.327 v 0 c -5.299,0 -9.272,3.807 -9.272,9.987 v 0 c 0,5.575 3.311,10.098 9.436,10.098 v 0 c 2.649,0 4.471,-0.608 5.627,-1.27 v 0 l 1.106,3.752 c -1.326,0.662 -3.865,1.381 -6.733,1.381 v 0 c -8.716,0 -14.344,-5.958 -14.344,-14.183 m 387.637,-13.075 h 4.854 v 26.707 h -4.854 z m -31.168,26.707 v -16.389 c 0,-0.882 -0.168,-1.765 -0.441,-2.485 v 0 c -0.883,-2.148 -3.144,-4.411 -6.402,-4.411 v 0 c -4.417,0 -5.961,3.419 -5.961,8.495 v 0 14.79 h -4.856 v -15.615 c 0,-9.38 5.023,-11.699 9.217,-11.699 v 0 c 4.744,0 7.56,2.815 8.826,4.967 v 0 h 0.111 l 0.276,-4.36 h 4.304 c -0.165,2.096 -0.22,4.523 -0.22,7.281 v 0 19.426 z m -205.297,0 v -16.389 c 0,-0.882 -0.166,-1.765 -0.441,-2.485 v 0 c -0.883,-2.148 -3.148,-4.411 -6.404,-4.411 v 0 c -4.414,0 -5.956,3.419 -5.956,8.495 v 0 14.79 h -4.857 v -15.615 c 0,-9.38 5.022,-11.699 9.215,-11.699 v 0 c 4.744,0 7.563,2.815 8.828,4.967 v 0 h 0.109 l 0.282,-4.36 h 4.301 c -0.168,2.096 -0.219,4.523 -0.219,7.281 v 0 19.426 z m -179.642,0 v -16.389 c 0,-0.882 -0.165,-1.765 -0.442,-2.485 v 0 c -0.883,-2.148 -3.144,-4.411 -6.398,-4.411 v 0 c -4.416,0 -5.959,3.419 -5.959,8.495 v 0 14.79 h -4.854 v -15.615 c 0,-9.38 5.017,-11.699 9.211,-11.699 v 0 c 4.749,0 7.56,2.815 8.829,4.967 v 0 h 0.111 l 0.275,-4.36 h 4.303 c -0.165,2.096 -0.22,4.523 -0.22,7.281 v 0 19.426 z"
         inkscape:connector-curvature="0" /></clipPath><clipPath
       id="clipPath104"
       clipPathUnits="userSpaceOnUse"><path
         id="path102"
         d="m 892.093,1318.587 h 744.665 v 1.564 H 892.093 Z"
         inkscape:connector-curvature="0" /></clipPath><clipPath
       id="clipPath122"
       clipPathUnits="userSpaceOnUse"><path
         id="path120"
         d="M 0,2000 H 2000 V 0 H 0 Z"
         inkscape:connector-curvature="0" /></clipPath></defs><g
     inkscape:groupmode="layer"
     id="layer2"
     inkscape:label="Layer 2"
     style="display:inline"
     transform="translate(0,-3.2226562e-6)"><path
       style="fill:#ffffff;fill-opacity:1;stroke:#ffffff;stroke-width:15;stroke-linecap:round;stroke-linejoin:round;stroke-miterlimit:4;stroke-dasharray:none;stroke-dashoffset:0;stroke-opacity:1;paint-order:stroke fill markers"
       d="M 74.644451,333.81717 C 49.698347,322.45232 37.89043,305.98469 37.89043,282.55906 c 0,-23.39691 7.977608,-37.44115 26.795419,-47.17222 14.940601,-7.72609 51.524811,-8.91366 55.912041,-1.81499 2.13409,3.45303 4.37116,3.47 7.78213,0.059 5.41915,-5.41914 -12.124,-27.19361 -21.90923,-27.19361 -16.197294,0 -7.273924,-29.50548 15.35848,-50.78343 18.73596,-17.6147 51.631,-21.18268 73.07972,-7.92664 31.16098,19.25854 45.20833,67.48547 24.47251,84.01829 -16.44689,13.11323 -25.47165,29.10995 -25.47165,45.14944 0,19.37926 9.39884,16.85175 14.48552,-3.8954 9.82256,-40.06356 59.31622,-47.91776 86.9271,-13.79456 8.67269,10.71824 7.07534,47.01718 -2.4483,55.63595 -13.41156,12.1373 -66.43385,21.22792 -136.85475,23.46362 -53.06689,1.68476 -69.859697,0.75873 -81.374969,-4.48736 z"
       id="path97"
       inkscape:connector-curvature="0" /></g><g
     inkscape:groupmode="layer"
     id="layer1"
     inkscape:label="Layer 1"
     style="display:inline"
     transform="translate(0,-3.2226562e-6)"
     sodipodi:insensitive="true"><g
       transform="matrix(1.3333333,0,0,-1.3333333,-309.27816,2052.7205)"
       id="g10"><g
   transform="translate(-317.59883,17.977292)"
   id="g12"><g
     clip-path="url(#clipPath18)"
     id="g14"><g
       transform="translate(580.6621,1256.1953)"
       id="g20"><path
         id="path22"
         style="fill:#2aa5dc;fill-opacity:1;fill-rule:nonzero;stroke:none"
         d="m 0,0 c 0,0 9.63,-7.223 31.054,-5.803 0,0 3.756,0.065 6.57,4.261 0,0 2.303,5.23 -7.628,2.955 0,0 -12.195,-1.746 -23.595,4.163 0,0 -23.961,13.35 -27.992,33.429 0,0 -7.314,19.798 4.423,40.527 0,0 7.256,12.282 15.439,17.959 0,0 13.64,12.94 33.83,9.306 0,0 9.942,-0.793 29.76,-16.845 0,0 6.359,-1.79 4.877,3.766 0,0 -5.246,13.335 -26.608,18.151 0,0 -0.555,17.718 8.149,25.435 0,0 14.879,28.153 47.352,25.066 0,0 29.265,0.679 45.131,-37.166 0,0 5.062,-16.916 1.543,-30.251 l 20.744,3.704 -19.818,39.821 c 0,0 -12.409,25.342 -45.007,31.007 0,0 -29.448,6.776 -54.266,-24.154 0,0 -10.743,-18.336 -11.484,-31.487 0,0 -36.302,9.261 -58.712,-34.449 0,0 -21.608,-49.329 26.238,-79.395"
         inkscape:connector-curvature="0" /></g><g
       transform="translate(769.1968,1270.9512)"
       id="g24"><path
         id="path26"
         style="fill:#2aa5dc;fill-opacity:1;fill-rule:nonzero;stroke:none"
         d="m 0,0 c 0,0 40.635,35.561 2.852,71.862 0,0 2.075,10.187 -2.852,13.706 0,0 -1.964,5.001 -15.484,-1.482 0,0 -11.299,-3.704 -21.115,5.001 l -11.668,-9.446 c 0,0 -15.743,-7.038 -23.151,-24.263 0,0 -5.001,-15.557 0,-21.484 0,0 3.704,-1.852 5.927,2.593 0,0 -1.853,15.557 10.927,29.819 0,0 28.418,22.814 56.77,-7.746 0,0 16.982,-24.851 -2.206,-47.818 0,0 -10.484,-9.075 -9.372,-10.742 0,0 3.001,-2.778 9.372,0"
         inkscape:connector-curvature="0" /></g><g
       transform="translate(669.2554,1426.3086)"
       id="g28"><path
         id="path30"
         style="fill:#2aa5dc;fill-opacity:1;fill-rule:nonzero;stroke:none"
         d="m 0,0 c 0,0 -0.249,14.112 4.075,26.088 0,0 2.24,6.106 10.125,18.028 1.244,1.881 5.186,6.914 6.421,11.483 0,0 6.668,20.99 -17.225,24.319 0,0 -7.613,1.355 -12.593,-2.648 -3.15,-2.532 -6.113,-4.014 -8.398,-4.631 0,0 -11.298,-3.889 -10.927,3.334 0,0 -2.038,10.742 23.522,13.705 0,0 31.271,5.371 34.897,-19.447 0,0 5.108,-15.188 -13.413,-37.969 0,0 -10.187,-15.774 -7.779,-32.89 2.408,-17.117 0,-0.818 0,-0.818 l -3.148,-2.037 -6.112,2.855"
         inkscape:connector-curvature="0" /></g><g
       transform="translate(721.856,1393.8394)"
       id="g32"><path
         id="path34"
         style="fill:#2aa5dc;fill-opacity:1;fill-rule:nonzero;stroke:none"
         d="m 0,0 c 0,0 16.616,4.073 19.333,17.902 l -23.708,1.604 c 0,0 -6.419,2.254 -9.877,13.166 0,0 -14.323,7.702 -13.335,18.815 0,0 2.222,13.829 14.076,15.805 0,0 12.364,3.056 14.879,-16.7 0,0 5.817,-16.732 -5.519,-17.92 0,0 -2.446,-5.386 6.444,-5.633 0,0 10.838,-3.211 18.507,3.21 0,0 5.2,4.785 11.375,3.875 0,0 1.326,2.361 -1.266,3.842 0,0 -15.373,13.15 -18.058,31.764 0,0 -12.688,1.76 -14.262,10.743 0,0 -2.964,13.891 8.52,16.669 0,0 7.316,1.667 11.02,0 0,0 9.353,25.467 36.024,29.819 0,0 22.04,5.185 29.912,-11.483 0,0 3.241,-9.076 1.481,-16.669 0,0 -1.852,-8.335 0.093,-10.465 0,0 7.131,1.667 10.094,-2.963 2.963,-4.631 4.26,-14.539 -1.667,-16.855 0,0 1.76,-7.871 -4.167,-13.242 0,0 -18.799,-10.928 -24.17,-20.188 0,0 -1.656,-2.115 -2.5,-2.856 -2.034,-1.784 -4.739,-3.312 -7.224,-3.966 0,0 -2.233,-0.968 -4.723,0.247 0,0 -0.741,-3.705 3.426,-4.353 0,0 7.918,1.097 16.531,3.736 l 62.278,22.271 c 0,0 -2.895,7.78 -0.58,11.576 0,0 1.281,2.018 2.447,2.461 2.159,0.822 4.738,4.932 4.846,8.142 0,0 -0.602,8.119 5.233,8.489 0,0 5.586,0.34 5.123,-6.513 l -0.4,-4.507 c 0,0 8.543,3.241 11.402,-2.593 0,0 5.774,-11.708 -0.349,-21.153 0,0 -9.009,-8.881 -20.87,-3.295 l -4.074,2.501 c 0,0 -72.419,-29.974 -73.252,-31.95 0,0 -5.688,-2.869 -9.909,-10.557 0,0 -14.539,-25.93 -22.04,-32.782 0,0 -4.908,-5.927 -8.427,-7.409 l 1.389,-3.704 H 8.22 l -1.852,11.923 -2.315,23.36 z"
         inkscape:connector-curvature="0" /></g><g
       transform="translate(788.5322,1499.6885)"
       id="g36"><path
         id="path38"
         style="fill:#b9e1f6;fill-opacity:1;fill-rule:nonzero;stroke:none"
         d="m 0,0 c 0,0 9.816,6.112 13.521,-0.556 0,0 -1.112,-9.075 -0.556,-16.484 0,0 1.111,-8.705 8.149,-13.706 0,0 6.668,-7.408 0,-14.075 0,0 -20.002,-14.077 -23.707,-22.596 0,0 -8.89,-12.595 -23.337,-2.964 0,0 -18.891,11.483 -15.558,28.152 0,0 2.223,3.334 7.038,4.446 0,0 -11.853,19.262 -1.111,32.968 0,0 17.41,22.225 35.561,4.815"
         inkscape:connector-curvature="0" /></g><g
       transform="translate(736.4878,1483.019)"
       id="g40"><path
         id="path42"
         style="fill:#b9e1f6;fill-opacity:1;fill-rule:nonzero;stroke:none"
         d="m 0,0 c 0,0 -3.982,-5.834 -4.167,-14.539 0,0 -6.112,0.926 -6.668,6.76 0,0 -1.574,8.427 5.927,9.817 0,0 3.797,0.926 4.908,-2.038"
         inkscape:connector-curvature="0" /></g><g
       transform="translate(805.7573,1476.4443)"
       id="g44"><path
         id="path46"
         style="fill:#b9e1f6;fill-opacity:1;fill-rule:nonzero;stroke:none"
         d="m 0,0 c 0,0 4.074,2.778 6.853,0 0,0 4.147,-4.047 1.759,-7.501 0,0 -1.759,-1.019 -2.871,0 0,0 -2.338,2.892 -4.815,4.537 0,0 -1.759,1.205 -0.926,2.964"
         inkscape:connector-curvature="0" /></g><g
       transform="translate(719.4482,1443.7544)"
       id="g48"><path
         id="path50"
         style="fill:#b9e1f6;fill-opacity:1;fill-rule:nonzero;stroke:none"
         d="m 0,0 c 0,0 -1.852,9.446 -8.026,12.039 0,0 -4.445,1.172 -7.779,-2.655 0,0 -6.112,-6.236 -4.074,-13.829 0,0 3.519,-8.336 12.841,-10.064 0,0 5.248,-1.605 8.273,6.36 0,0 0.761,2.479 -1.235,8.149"
         inkscape:connector-curvature="0" /></g><g
       transform="translate(727.7827,1385.103)"
       id="g52"><path
         id="path54"
         style="fill:#b9e1f6;fill-opacity:1;fill-rule:nonzero;stroke:none"
         d="m 0,0 c 0,0 12.055,4.899 26.917,22.966 0,0 4.074,5.681 9.755,4.199 0,0 8.274,-1.975 2.963,-15.187 0,0 -10.371,-32.722 -35.066,-36.055 0,0 0,17.163 -4.569,24.077"
         inkscape:connector-curvature="0" /></g><g
       transform="translate(635.6704,1351.6421)"
       id="g56"><path
         id="path58"
         style="fill:#b9e1f6;fill-opacity:1;fill-rule:nonzero;stroke:none"
         d="m 0,0 c 0,0 -43.462,8.149 -58.773,-28.152 0,0 -13.089,-43.217 40.252,-57.045 0,0 38.277,-6.174 85.939,1.481 0,0 55.415,7.161 66.108,15.311 0,0 -4.864,-18.522 -56.477,-26.671 0,0 -75.32,-10.866 -100.756,-5.927 0,0 3.704,-0.493 6.914,4.939 0,0 1.236,3.951 -9.877,1.729 0,0 -25.188,-2.717 -42.476,22.225 0,0 -28.398,38.361 11.113,72.892 0,0 23.708,26.136 58.033,-0.782"
         inkscape:connector-curvature="0" /></g><g
       transform="translate(774.2251,1475.8418)"
       id="g60"><path
         id="path62"
         style="fill:#2aa5dc;fill-opacity:1;fill-rule:nonzero;stroke:none"
         d="m 0,0 c 0,0 -0.51,5.094 -7.501,5.51 0,0 -6.622,1.297 -8.243,-5.047 0,0 0.602,-2.5 3.381,-0.787 0,0 -0.009,3.725 5,3.936 0,0 4.769,-0.875 5.279,-4.535 0,0 1.945,-0.744 2.084,0.923"
         inkscape:connector-curvature="0" /></g><g
       transform="translate(784.8511,1475.0781)"
       id="g64"><path
         id="path66"
         style="fill:#2aa5dc;fill-opacity:1;fill-rule:nonzero;stroke:none"
         d="m 0,0 c 0,0 0.371,5.186 4.677,6.159 0,0 6.251,2.013 8.983,-3.589 0,0 0.972,-2.27 0.092,-2.895 0,0 -1.956,-0.717 -2.546,2.686 0,0 -1.575,3.079 -4.7,2.431 0,0 -2.778,-0.301 -3.473,-3.217 C 3.033,1.575 2.895,-1.504 0,0"
         inkscape:connector-curvature="0" /></g><g
       transform="translate(761.3672,1457.7686)"
       id="g68"><path
         id="path70"
         style="fill:#2aa5dc;fill-opacity:1;fill-rule:nonzero;stroke:none"
         d="m 0,0 c 1.418,0.874 3.46,0.125 4.756,-0.666 1.408,-0.859 2.941,-1.667 4.432,-2.374 2.923,-1.383 5.96,-2.278 9.27,-2.27 1.718,0.005 3.547,-0.174 5.233,0.063 1.407,0.199 2.852,0.354 4.257,0.497 1.707,0.172 3.483,0.529 5.035,1.34 0.777,0.407 1.556,0.73 2.306,1.188 0.698,0.429 1.344,0.996 2.018,1.419 0.311,0.196 1.15,0.817 1.525,0.749 0.5,-0.092 0.974,-1.441 0.843,-1.912 C 38.728,-2.247 37.82,-3 36.914,-3.439 c -1.258,-0.609 -2.431,-1.435 -3.579,-2.226 -1.627,-1.123 -3.529,-2.704 -4.564,-4.398 -2.423,-3.972 -5.177,-8.017 -9.198,-10.495 -2.113,-1.301 -4.482,-1.669 -6.932,-1.668 -2.327,10e-4 -5.273,0.425 -7.276,1.677 -1.948,1.216 -3.455,2.752 -4.072,4.991 -0.61,2.218 0.003,4.442 0.003,6.695 0,1.757 0.469,4.361 -0.368,5.901 -0.286,0.53 -0.394,0.373 -0.869,0.783 -0.364,0.316 -0.549,0.913 -0.375,1.592 C -0.287,-0.47 -0.12,0.01 0,0"
         inkscape:connector-curvature="0" /></g><g
       transform="translate(779.457,1464.9844)"
       id="g72"><path
         id="path74"
         style="fill:#2aa5dc;fill-opacity:1;fill-rule:nonzero;stroke:none"
         d="m 0,0 c 0,-1.036 -0.881,-1.875 -1.968,-1.875 -1.087,0 -1.968,0.839 -1.968,1.875 0,1.036 0.881,1.875 1.968,1.875 C -0.881,1.875 0,1.036 0,0"
         inkscape:connector-curvature="0" /></g><g
       transform="translate(787.5132,1465.3081)"
       id="g76"><path
         id="path78"
         style="fill:#2aa5dc;fill-opacity:1;fill-rule:nonzero;stroke:none"
         d="m 0,0 c 0,-1.036 -0.881,-1.875 -1.967,-1.875 -1.087,0 -1.968,0.839 -1.968,1.875 0,1.036 0.881,1.875 1.968,1.875 C -0.881,1.875 0,1.036 0,0"
         inkscape:connector-curvature="0" /></g><g
       transform="translate(857.1938,1448.3535)"
       id="g80"><path
         id="path82"
         style="fill:#b9e1f6;fill-opacity:1;fill-rule:nonzero;stroke:none"
         d="m 0,0 c 0,0 -2.887,5.018 0.984,8.986 0,0 5.068,1.737 5.206,5.665 0,0 -1.398,6.182 1.491,8.342 0,0 4.789,3.286 5.406,-2.412 0,0 1.044,-5.282 -0.676,-8.613 0,0 7.063,1.813 10.257,0 3.196,-1.814 4.302,-11.503 1.415,-16.522 0,0 -3.44,-6.009 -13.086,-5.601 0,0 -8.601,-0.35 -8.786,5.895 0,0 -0.829,2.665 -2.211,4.26"
         inkscape:connector-curvature="0" /></g></g></g>

</g></g></svg>