<?xml version="1.0" standalone="no"?>
<!DOCTYPE svg PUBLIC "-//W3C//DTD SVG 20010904//EN"
 "http://www.w3.org/TR/2001/REC-SVG-20010904/DTD/svg10.dtd">
<svg version="1.0" xmlns="http://www.w3.org/2000/svg"
 width="200.000000pt" height="200.000000pt" viewBox="0 0 200.000000 200.000000"
 preserveAspectRatio="xMidYMid meet">
<metadata>
Created by potrace 1.16, written by Peter Selinger 2001-2019
</metadata>
<g class="custom-icon" transform="translate(0.000000,200.000000) scale(0.100000,-0.100000)"
fill="#000000" stroke="none">
<path d="M780 1788 c-12 -46 -32 -118 -43 -160 l-22 -78 -117 0 -117 0 -10
-37 c-6 -21 -22 -76 -35 -122 -14 -47 -23 -88 -20 -93 3 -4 54 -8 115 -8 60 0
109 -4 109 -9 0 -5 -18 -76 -39 -157 -169 -636 -175 -658 -219 -697 -29 -27
-93 -33 -133 -13 l-32 16 -100 -99 c-69 -67 -98 -103 -94 -114 10 -26 91 -67
154 -78 165 -29 373 84 466 253 l32 58 173 0 c94 0 172 -2 172 -5 0 -3 -18
-70 -40 -150 -22 -80 -40 -150 -40 -155 0 -7 46 -10 132 -8 l133 3 31 115 c17
63 36 134 43 158 l12 42 115 0 114 0 11 27 c16 43 59 206 59 226 0 15 -12 17
-110 17 -93 0 -110 2 -110 16 0 8 18 83 41 167 22 84 58 217 79 297 87 327 96
352 144 381 36 22 76 24 123 7 l34 -12 101 101 c99 99 101 103 84 121 -9 11
-44 32 -78 47 -55 25 -69 27 -147 23 -157 -8 -293 -94 -387 -244 l-46 -74
-169 0 c-93 0 -169 4 -169 8 0 4 18 73 39 152 22 80 37 148 34 152 -2 5 -60 8
-127 8 l-124 0 -22 -82z m460 -509 c0 -11 -61 -246 -118 -454 l-27 -100 -168
-3 c-92 -1 -167 1 -167 6 0 14 130 505 145 550 6 16 335 18 335 1z"/>
</g>
</svg>
